<svg id="Layer_1" data-name="Layer 1" xmlns="http://www.w3.org/2000/svg" viewBox="0 0 23.25 21.23"><defs><style>.cls-1{fill-rule:evenodd;}</style></defs><path d="M19.8,2.7c4.6,3.66,4.6,9.73,0,13.4a13.32,13.32,0,0,1-9.09,2.67,21.16,21.16,0,0,1-7.9,2.45.65.65,0,0,1-.57-1A17,17,0,0,0,4.15,16.6a9.92,9.92,0,0,1-2.92-3C-1.13,9.8.07,5.41,3.47,2.7A13.7,13.7,0,0,1,19.8,2.7Zm-.79,1a12.44,12.44,0,0,0-14.75,0C1.39,6,.31,9.68,2.31,12.91a9.09,9.09,0,0,0,2.95,2.86.66.66,0,0,1,.28.77,17.14,17.14,0,0,1-1.49,3.19,20.21,20.21,0,0,0,6.2-2.19.6.6,0,0,1,.37-.09A12.13,12.13,0,0,0,19,15.07C22.94,11.93,22.94,6.86,19,3.73Z"/><path class="cls-1" d="M7.63,8.28A1.12,1.12,0,1,1,6.52,9.4,1.11,1.11,0,0,1,7.63,8.28Z"/><path class="cls-1" d="M11.63,8.28a1.12,1.12,0,1,1-1.1,1.12A1.11,1.11,0,0,1,11.63,8.28Z"/><path class="cls-1" d="M15.64,8.28a1.12,1.12,0,1,1-1.1,1.12A1.11,1.11,0,0,1,15.64,8.28Z"/></svg>