<svg width="267" height="36" viewBox="0 0 267 36" fill="none" xmlns="http://www.w3.org/2000/svg">
<path d="M11.1614 14.1387H11.5431L11.6437 13.7705C12.1598 11.8809 13.1837 10.4897 14.714 9.56019C16.2577 8.6225 18.3566 8.13089 21.052 8.13089C23.5602 8.13089 25.7182 8.67763 27.5439 9.75283L27.5439 9.75286L27.5489 9.75574C29.1386 10.6673 30.2602 11.8681 30.9353 13.3613H17.9526H17.4526V13.8613V20.4921V20.9921H17.9526H31.1828C30.6534 23.0526 29.5634 24.6715 27.9135 25.8733C26.1011 27.1935 23.8248 27.8691 21.052 27.8691C18.231 27.8691 16.0142 27.2891 14.3593 26.1754C12.7494 25.0716 11.822 23.5394 11.5661 21.5412L11.5103 21.1047H11.0702H2H1.44451L1.50276 21.6571C1.94381 25.8405 3.953 29.2154 7.49712 31.7571L7.49946 31.7588C11.0388 34.2665 15.5692 35.5 21.052 35.5C27.1843 35.5 32.1274 33.934 35.8266 30.7507L35.8284 30.7492C39.5328 27.5307 41.3788 23.2642 41.3788 18C41.3788 12.7362 39.533 8.48374 35.8275 5.29456C32.1285 2.08118 27.1849 0.5 21.052 0.5C15.6311 0.5 11.1336 1.70328 7.59572 4.14867C4.08803 6.56454 2.08372 9.71347 1.63999 13.5818L1.5761 14.1387H2.13674H11.1614ZM55.2586 1.84555V1.34555H54.7586H46.4633H45.9633V1.84555V34.1545V34.6545H46.4633H54.7586H55.2586V34.1545V23.212L58.8898 20.0519L70.5965 34.4696L70.7466 34.6545H70.9847H81.1488H82.212L81.5339 33.8355L65.484 14.4543L79.6973 2.22456L80.7189 1.34555H79.3712H68.7058H68.5154L68.3733 1.4721L55.2586 13.1472V1.84555ZM120.416 14.1387H120.977L120.913 13.5818C120.469 9.71228 118.448 6.56362 114.911 4.14858C111.403 1.70277 106.92 0.5 101.501 0.5C95.3677 0.5 90.4241 2.08125 86.725 5.29477C83.0197 8.48393 81.174 12.7363 81.174 18C81.174 23.2642 83.02 27.5307 86.7244 30.7492L86.7262 30.7507C90.4254 33.934 95.3685 35.5 101.501 35.5C106.984 35.5 111.514 34.2665 115.053 31.7588L115.056 31.7571C118.6 29.2154 120.609 25.8405 121.05 21.6571L121.108 21.1047H120.553H111.483H111.043L110.987 21.5412C110.731 23.5368 109.791 25.0692 108.15 26.1743L108.146 26.1765C106.523 27.2885 104.323 27.8691 101.501 27.8691C98.2843 27.8691 95.8072 26.9785 94.0077 25.2494C92.2123 23.5242 91.2898 21.1296 91.2898 18C91.2898 14.8704 92.2123 12.4758 94.0077 10.7506C95.8072 9.02148 98.2843 8.13089 101.501 8.13089C104.196 8.13089 106.295 8.6225 107.839 9.56019C109.369 10.4897 110.393 11.8809 110.909 13.7705L111.01 14.1387H111.391H120.416ZM126.137 1.34555H125.637V1.84555V34.1545V34.6545H126.137H134.433H134.933V34.1545V8.97644H149.84V34.1545V34.6545H150.34H158.635H159.135V34.1545V1.84555V1.34555H158.635H126.137ZM166.019 1.34555H165.519V1.84555V34.1545V34.6545H166.019H195.417H195.917V34.1545V27.5236V27.0236H195.417H174.814V20.9921H193.093H193.593V20.4921V13.8613V13.3613H193.093H174.814V8.97644H195.417H195.917V8.47644V1.84555V1.34555H195.417H166.019ZM201.083 34.1545V34.6545H201.583H209.878H210.378V34.1545V24.5079H221.182C225.095 24.5079 228.21 23.4906 230.455 21.3926C232.733 19.2928 233.851 16.42 233.851 12.8377C233.851 9.28577 232.749 6.45459 230.497 4.41268C228.251 2.34593 225.122 1.34555 221.182 1.34555H201.583H201.083V1.84555V34.1545ZM223.202 9.83916L223.21 9.84352L223.217 9.84763C224.055 10.3153 224.556 11.2798 224.556 12.9712C224.556 14.5675 224.018 15.5322 223.047 16.0435C222.006 16.5778 220.181 16.877 217.49 16.877H210.378V8.97644H218.037C220.611 8.97644 222.296 9.29254 223.202 9.83916ZM235.006 1.34555H234.506V1.84555V8.47644V8.97644H235.006H245.856V34.1545V34.6545H246.356H254.651H255.151V34.1545V8.97644H266H266.5V8.47644V1.84555V1.34555H266H235.006Z" stroke="white"/>
</svg>
