<svg width="1382" height="181" viewBox="0 0 1382 181" fill="none" xmlns="http://www.w3.org/2000/svg">
<path d="M49.8889 67.7483H50.2709L50.3713 67.3797C53.1997 56.9953 58.8642 49.2334 67.3628 44.0569C75.8748 38.8722 87.27 36.257 101.59 36.257C115.016 36.257 126.679 39.1947 136.597 45.0518L136.602 45.0547C146.293 50.6268 152.88 58.2453 156.395 67.9146H85.3886H84.8886V68.4146V103.172V103.672H85.3886H157.206C154.614 116.179 148.445 125.975 138.701 133.093C128.796 140.327 116.437 143.96 101.59 143.96C86.5666 143.96 74.5238 140.863 65.419 134.716C56.4872 128.579 51.3204 120 49.9084 108.94L49.8526 108.503H49.4124H2H1.44467L1.50274 109.056C3.742 130.353 13.9073 147.508 31.9662 160.495L31.9686 160.497C50.0228 173.324 73.2428 179.717 101.59 179.717C133.284 179.717 158.587 171.607 177.443 155.336L177.445 155.334C196.306 138.902 205.73 117.143 205.73 90.1086C205.73 63.0741 196.306 41.3923 177.443 25.1151C158.587 8.68807 133.284 0.5 101.59 0.5C73.5618 0.5 50.5032 6.73707 32.4505 19.2501C14.5562 31.6079 4.45993 47.593 2.218 67.1914L2.1543 67.7483H2.71476H49.8889ZM278.284 5.43211V4.93211H277.784H234.422H233.922V5.43211V174.785V175.285H234.422H277.784H278.284V174.785V116.462L299.641 97.8245L362.213 175.1L362.363 175.285H362.602H415.732H416.794L416.118 174.467L330.897 71.2727L406.767 5.81068L407.785 4.93211H406.44H350.689H350.498L350.356 5.05911L278.284 69.3974V5.43211ZM620.993 67.7483H621.554L621.49 67.1914C619.248 47.5923 609.072 31.6079 591.02 19.251C573.126 6.7369 550.146 0.5 522.118 0.5C490.424 0.5 465.121 8.68791 446.265 25.1147C427.402 41.3918 417.978 63.0738 417.978 90.1086C417.978 117.143 427.402 138.902 446.263 155.334L446.265 155.336C465.121 171.607 490.424 179.717 522.118 179.717C550.465 179.717 573.685 173.324 591.739 160.497L591.742 160.495C609.801 147.508 619.966 130.353 622.205 109.056L622.263 108.503H621.708H574.295H573.855L573.799 108.94C572.388 119.997 567.144 128.576 558.053 134.715L558.049 134.717C549.105 140.863 537.143 143.96 522.118 143.96C504.901 143.96 491.377 139.169 481.485 129.637C471.597 120.11 466.628 106.956 466.628 90.1086C466.628 73.2616 471.597 60.1071 481.485 50.5797C491.377 41.0485 504.901 36.257 522.118 36.257C536.438 36.257 547.833 38.8722 556.345 44.0569C564.844 49.2334 570.508 56.9953 573.336 67.3797L573.437 67.7483H573.819H620.993ZM650.899 4.93211H650.399V5.43211V174.785V175.285H650.899H694.261H694.761V174.785V40.6891H776.912V174.785V175.285H777.412H820.774H821.274V174.785V5.43211V4.93211H820.774H650.899ZM859.371 4.93211H858.871V5.43211V174.785V175.285H859.371H1013.04H1013.54V174.785V140.028V139.528H1013.04H903.233V103.672H1000.89H1001.39V103.172V68.4146V67.9146H1000.89H903.233V40.6891H1013.04H1013.54V40.1891V5.43211V4.93211H1013.04H859.371ZM1044.77 174.785V175.285H1045.27H1088.64H1089.14V174.785V122.1H1147.72C1167.82 122.1 1183.52 116.867 1194.76 106.338C1206.16 95.8066 1211.84 81.3558 1211.84 63.0494C1211.84 44.9008 1206.24 30.6813 1195 20.4595C1183.76 10.0859 1167.98 4.93211 1147.72 4.93211H1045.27H1044.77V5.43211V174.785ZM1159.38 45.5156L1159.38 45.52L1159.39 45.5241C1164.73 48.5084 1167.47 54.5066 1167.47 63.7492C1167.47 72.6452 1164.43 78.5806 1158.45 81.7343C1152.53 84.7852 1142.55 86.3428 1128.42 86.3428H1089.14V40.6891H1131.28C1144.78 40.6891 1154.1 42.3266 1159.38 45.5156ZM1219.99 4.93211H1219.49V5.43211V40.1891V40.6891H1219.99H1278.81V174.785V175.285H1279.31H1322.67H1323.17V174.785V40.6891H1382H1382.5V40.1891V5.43211V4.93211H1382H1219.99Z" stroke="white"/>
</svg>
