<svg id="Layer_1" data-name="Layer 1" xmlns="http://www.w3.org/2000/svg" viewBox="0 0 102 23.86"><defs><style>.cls-1,.cls-2{fill:#ed1c24;}.cls-2{fill-rule:evenodd;}</style></defs><path class="cls-1" d="M3.52,4.85H.05A4.79,4.79,0,0,1,2.26,1.37,8.71,8.71,0,0,1,7.32,0a8.16,8.16,0,0,1,5.54,1.79,5.93,5.93,0,0,1,2.07,4.73,6,6,0,0,1-2.07,4.75,8.16,8.16,0,0,1-5.54,1.78,8.66,8.66,0,0,1-5.1-1.4A5.08,5.08,0,0,1,0,7.91H3.48A2.63,2.63,0,0,0,4.64,9.82a4.69,4.69,0,0,0,2.68.68,4.49,4.49,0,0,0,2.74-.8,3.45,3.45,0,0,0,1.39-2.22H6.13V4.94h5.26A3.19,3.19,0,0,0,9.91,3.19a5.06,5.06,0,0,0-2.59-.65C5.2,2.54,3.94,3.31,3.52,4.85Z"/><path class="cls-1" d="M20.26.32V5.09L25.62.32h4.09l-5.6,4.82,6.28,7.58h-3.9L21.87,7l-1.61,1.4v4.28H17.07V.32Z"/><path class="cls-1" d="M45.47,4.85H42q-.63-2.31-3.8-2.31a4.18,4.18,0,0,0-3,1.06,3.84,3.84,0,0,0-1.1,2.92,3.82,3.82,0,0,0,1.1,2.92,4.14,4.14,0,0,0,3,1.06,4.58,4.58,0,0,0,2.66-.68A2.58,2.58,0,0,0,42,7.91h3.49a5.12,5.12,0,0,1-2.23,3.74,8.63,8.63,0,0,1-5.09,1.4,8.2,8.2,0,0,1-5.55-1.78A6,6,0,0,1,30.6,6.52a5.92,5.92,0,0,1,2.06-4.73A8.21,8.21,0,0,1,38.21,0a8.64,8.64,0,0,1,5,1.37A4.75,4.75,0,0,1,45.47,4.85Z"/><path class="cls-1" d="M47.67.32H60.15v12.4H57V2.87h-6.1v9.85H47.67Z"/><path class="cls-1" d="M63,.32H74.28V2.87H66.17V4.94h7.21V7.48H66.17v2.7h8.11v2.54H63Z"/><path class="cls-1" d="M76.64,12.72V.32h7.53a4.93,4.93,0,0,1,3.45,1.13,4,4,0,0,1,1.22,3.09A4.07,4.07,0,0,1,87.6,7.69a4.85,4.85,0,0,1-3.43,1.14H79.83v3.89Zm3.19-9.85V6.29h2.92A5.13,5.13,0,0,0,85,5.94a1.38,1.38,0,0,0,.69-1.35A1.42,1.42,0,0,0,85,3.23,4.28,4.28,0,0,0,83,2.87Z"/><path class="cls-1" d="M89.48.32h11.9V2.87H97v9.85H93.84V2.87H89.48Z"/><path class="cls-2" d="M102,16.7H0v7.16H102ZM54.06,19h.72v2.1L56.26,19h.92v3h-.72V19.88L55,22h-.91Zm.68-1h.36a.43.43,0,0,0,.13.21.56.56,0,0,0,.32.08c.28,0,.44-.1.47-.29h.35a.79.79,0,0,1,0,.2,1.71,1.71,0,0,1-.12.23.58.58,0,0,1-.25.21.88.88,0,0,1-.41.09.93.93,0,0,1-.34-.06.82.82,0,0,1-.23-.14.85.85,0,0,1-.14-.19.89.89,0,0,1-.07-.19A.8.8,0,0,1,54.74,18Zm-18.46.91a1.86,1.86,0,0,0-1.3.43,1.59,1.59,0,0,0,0,2.28,2.21,2.21,0,0,0,2.59,0,1.59,1.59,0,0,0,0-2.28A1.85,1.85,0,0,0,36.28,18.94Zm0,.61a1,1,0,0,1,.7.26,1.1,1.1,0,0,1,0,1.4,1,1,0,0,1-.7.25,1,1,0,0,1-.71-.25,1.11,1.11,0,0,1,0-1.4A1,1,0,0,1,36.28,19.55ZM10.36,19h2.91v3h-.74V19.63H11.1V22h-.74Zm6.27,3V19h1.76a1.12,1.12,0,0,1,.8.27,1,1,0,0,1,.29.74,1,1,0,0,1-.29.76,1.12,1.12,0,0,1-.8.27h-1V22Zm.74-2.37v.82h.69a1.22,1.22,0,0,0,.51-.08.34.34,0,0,0,.16-.33c0-.16,0-.27-.14-.32a.94.94,0,0,0-.49-.09ZM23.43,19,22,22h.8l.27-.64h1.3l.27.64h.83l-1.35-3Zm.69,1.74h-.78l.39-.92ZM28.43,22V19h1.92c.67,0,1,.25,1,.74a.68.68,0,0,1-.41.65.7.7,0,0,1,.52.74.8.8,0,0,1-.25.62,1,1,0,0,1-.71.23Zm.75-1.27v.65h1a.93.93,0,0,0,.4-.05.25.25,0,0,0,.12-.25.29.29,0,0,0-.12-.27.77.77,0,0,0-.4-.08Zm0-1.1v.58h.87a.92.92,0,0,0,.4-.06.26.26,0,0,0,.12-.25.2.2,0,0,0-.12-.21.92.92,0,0,0-.4-.06ZM41.25,19h1.91c.67,0,1,.25,1,.74a.68.68,0,0,1-.41.65.71.71,0,0,1,.52.74.81.81,0,0,1-.26.62,1,1,0,0,1-.7.23H41.25ZM42,20.73v.65h1a1,1,0,0,0,.4-.05.25.25,0,0,0,.12-.25.29.29,0,0,0-.12-.27.83.83,0,0,0-.4-.08Zm0-1.1v.58h.88a1,1,0,0,0,.4-.06.26.26,0,0,0,.12-.25.2.2,0,0,0-.12-.21,1,1,0,0,0-.4-.06Zm7.1-.69a1.85,1.85,0,0,0-1.29.43,1.59,1.59,0,0,0,0,2.28,2.19,2.19,0,0,0,2.58,0,1.47,1.47,0,0,0,.49-1.14,1.46,1.46,0,0,0-.49-1.14A1.85,1.85,0,0,0,49.09,18.94Zm0,.61a1,1,0,1,1,0,1.91,1,1,0,0,1-.7-.25,1.07,1.07,0,0,1,0-1.4A1,1,0,0,1,49.09,19.55Zm16.38,1.83V19h-.74v3h2.55v.63H68V21.38h-.35V19H66.9v2.36ZM71.15,19h2.63v.61H71.89v.5h1.68v.61H71.89v.64h1.89V22H71.15Zm6.63,1.11V19H77v3h.75V20.74H79.2V22h.74V19H79.2v1.11ZM83,19h2.77v.61h-1V22H84V19.63H83Zm7.53,0H88.73v3h.74v-.94h1a1.11,1.11,0,0,0,.8-.27,1,1,0,0,0,.29-.76,1,1,0,0,0-.28-.74A1.13,1.13,0,0,0,90.48,19Zm-1,1.43v-.82h.73a1,1,0,0,1,.49.09.43.43,0,0,1,0,.65,1.27,1.27,0,0,1-.52.08Z"/></svg>