<svg id="Layer_1" data-name="Layer 1" xmlns="http://www.w3.org/2000/svg" viewBox="0 0 102 44.39"><defs><style>.cls-1,.cls-2{fill:#ed1c24;}.cls-2{fill-rule:evenodd;}.cls-3{fill:#242020;}</style></defs><path class="cls-1" d="M3.52,4.85H.05A4.79,4.79,0,0,1,2.26,1.37,8.71,8.71,0,0,1,7.32,0a8.16,8.16,0,0,1,5.54,1.79,5.93,5.93,0,0,1,2.07,4.73,6,6,0,0,1-2.07,4.75,8.16,8.16,0,0,1-5.54,1.78,8.66,8.66,0,0,1-5.1-1.4A5.08,5.08,0,0,1,0,7.91H3.48A2.63,2.63,0,0,0,4.64,9.82a4.69,4.69,0,0,0,2.68.68,4.49,4.49,0,0,0,2.74-.8,3.45,3.45,0,0,0,1.39-2.22H6.13V4.94h5.26A3.19,3.19,0,0,0,9.91,3.19a5.06,5.06,0,0,0-2.59-.65C5.2,2.54,3.94,3.31,3.52,4.85Z"/><path class="cls-1" d="M20.26.32V5.09L25.62.32h4.09l-5.6,4.82,6.28,7.58h-3.9L21.87,7l-1.61,1.4v4.28H17.07V.32Z"/><path class="cls-1" d="M45.47,4.85H42q-.63-2.31-3.8-2.31a4.18,4.18,0,0,0-3,1.06,3.84,3.84,0,0,0-1.1,2.92,3.82,3.82,0,0,0,1.1,2.92,4.14,4.14,0,0,0,3,1.06,4.58,4.58,0,0,0,2.66-.68A2.58,2.58,0,0,0,42,7.91h3.49a5.12,5.12,0,0,1-2.23,3.74,8.63,8.63,0,0,1-5.09,1.4,8.2,8.2,0,0,1-5.55-1.78A6,6,0,0,1,30.6,6.52a5.92,5.92,0,0,1,2.06-4.73A8.21,8.21,0,0,1,38.21,0a8.64,8.64,0,0,1,5,1.37A4.75,4.75,0,0,1,45.47,4.85Z"/><path class="cls-1" d="M47.67.32H60.15v12.4H57V2.87h-6.1v9.85H47.67Z"/><path class="cls-1" d="M63,.32H74.28V2.87H66.17V4.94h7.21V7.48H66.17v2.7h8.11v2.54H63Z"/><path class="cls-1" d="M76.64,12.72V.32h7.53a4.93,4.93,0,0,1,3.45,1.13,4,4,0,0,1,1.22,3.09A4.07,4.07,0,0,1,87.6,7.69a4.85,4.85,0,0,1-3.43,1.14H79.83v3.89Zm3.19-9.85V6.29h2.92A5.13,5.13,0,0,0,85,5.94a1.38,1.38,0,0,0,.69-1.35A1.42,1.42,0,0,0,85,3.23,4.28,4.28,0,0,0,83,2.87Z"/><path class="cls-1" d="M89.48.32h11.9V2.87H97v9.85H93.84V2.87H89.48Z"/><path class="cls-2" d="M102,16.7H0v7.16H102ZM54.06,19h.72v2.1L56.26,19h.92v3h-.72V19.88L55,22h-.91Zm.68-1h.36a.43.43,0,0,0,.13.21.56.56,0,0,0,.32.08c.28,0,.44-.1.47-.29h.35a.79.79,0,0,1,0,.2,1.71,1.71,0,0,1-.12.23.58.58,0,0,1-.25.21.88.88,0,0,1-.41.09.93.93,0,0,1-.34-.06.82.82,0,0,1-.23-.14.85.85,0,0,1-.14-.19.89.89,0,0,1-.07-.19A.8.8,0,0,1,54.74,18Zm-18.46.91a1.86,1.86,0,0,0-1.3.43,1.59,1.59,0,0,0,0,2.28,2.21,2.21,0,0,0,2.59,0,1.59,1.59,0,0,0,0-2.28A1.85,1.85,0,0,0,36.28,18.94Zm0,.61a1,1,0,0,1,.7.26,1.1,1.1,0,0,1,0,1.4,1,1,0,0,1-.7.25,1,1,0,0,1-.71-.25,1.11,1.11,0,0,1,0-1.4A1,1,0,0,1,36.28,19.55ZM10.36,19h2.91v3h-.74V19.63H11.1V22h-.74Zm6.27,3V19h1.76a1.12,1.12,0,0,1,.8.27,1,1,0,0,1,.29.74,1,1,0,0,1-.29.76,1.12,1.12,0,0,1-.8.27h-1V22Zm.74-2.37v.82h.69a1.22,1.22,0,0,0,.51-.08.34.34,0,0,0,.16-.33c0-.16,0-.27-.14-.32a.94.94,0,0,0-.49-.09ZM23.43,19,22,22h.8l.27-.64h1.3l.27.64h.83l-1.35-3Zm.69,1.74h-.78l.39-.92ZM28.43,22V19h1.92c.67,0,1,.25,1,.74a.68.68,0,0,1-.41.65.7.7,0,0,1,.52.74.8.8,0,0,1-.25.62,1,1,0,0,1-.71.23Zm.75-1.27v.65h1a.93.93,0,0,0,.4-.05.25.25,0,0,0,.12-.25.29.29,0,0,0-.12-.27.77.77,0,0,0-.4-.08Zm0-1.1v.58h.87a.92.92,0,0,0,.4-.06.26.26,0,0,0,.12-.25.2.2,0,0,0-.12-.21.92.92,0,0,0-.4-.06ZM41.25,19h1.91c.67,0,1,.25,1,.74a.68.68,0,0,1-.41.65.71.71,0,0,1,.52.74.81.81,0,0,1-.26.62,1,1,0,0,1-.7.23H41.25ZM42,20.73v.65h1a1,1,0,0,0,.4-.05.25.25,0,0,0,.12-.25.29.29,0,0,0-.12-.27.83.83,0,0,0-.4-.08Zm0-1.1v.58h.88a1,1,0,0,0,.4-.06.26.26,0,0,0,.12-.25.2.2,0,0,0-.12-.21,1,1,0,0,0-.4-.06Zm7.1-.69a1.85,1.85,0,0,0-1.29.43,1.59,1.59,0,0,0,0,2.28,2.19,2.19,0,0,0,2.58,0,1.47,1.47,0,0,0,.49-1.14,1.46,1.46,0,0,0-.49-1.14A1.85,1.85,0,0,0,49.09,18.94Zm0,.61a1,1,0,1,1,0,1.91,1,1,0,0,1-.7-.25,1.07,1.07,0,0,1,0-1.4A1,1,0,0,1,49.09,19.55Zm16.38,1.83V19h-.74v3h2.55v.63H68V21.38h-.35V19H66.9v2.36ZM71.15,19h2.63v.61H71.89v.5h1.68v.61H71.89v.64h1.89V22H71.15Zm6.63,1.11V19H77v3h.75V20.74H79.2V22h.74V19H79.2v1.11ZM83,19h2.77v.61h-1V22H84V19.63H83Zm7.53,0H88.73v3h.74v-.94h1a1.11,1.11,0,0,0,.8-.27,1,1,0,0,0,.29-.76,1,1,0,0,0-.28-.74A1.13,1.13,0,0,0,90.48,19Zm-1,1.43v-.82h.73a1,1,0,0,1,.49.09.43.43,0,0,1,0,.65,1.27,1.27,0,0,1-.52.08Z"/><path class="cls-3" d="M3.73,38.33a1.51,1.51,0,0,0-.6.14,2.39,2.39,0,0,0-.51.34,3.27,3.27,0,0,0-.45.46c-.14.17-.27.35-.4.52a5.31,5.31,0,0,0-.32.53,5.8,5.8,0,0,0-.27.62A6.36,6.36,0,0,0,1,41.6a3.89,3.89,0,0,0-.05.68,1.49,1.49,0,0,0,.13.57,1.39,1.39,0,0,0,.71.72,1.09,1.09,0,0,0,.47.08A2,2,0,0,0,3,43.53a3.75,3.75,0,0,0,.65-.28,6,6,0,0,0,.57-.42,4.7,4.7,0,0,0,.49-.51,4.12,4.12,0,0,0,.4-.56,4.6,4.6,0,0,0,.3-.58c0-.09.07-.19.1-.31a2.32,2.32,0,0,0,.06-.38,2.58,2.58,0,0,0,0-.39c0-.13,0-.26,0-.38a2.69,2.69,0,0,0,0-.31c0-.09,0-.17,0-.22a.92.92,0,0,0-.2-.28A1.18,1.18,0,0,0,5,38.62a2.35,2.35,0,0,0-.53-.22A2.22,2.22,0,0,0,3.73,38.33Zm2.7,1.6a2.36,2.36,0,0,1-.06.62,4,4,0,0,1-.22.7,4.92,4.92,0,0,1-.37.72,4.26,4.26,0,0,1-.5.68,8.28,8.28,0,0,1-.84.84,3.87,3.87,0,0,1-.77.52,3.17,3.17,0,0,1-.78.28,4.74,4.74,0,0,1-.89.1,1.16,1.16,0,0,1-.48-.08,1.63,1.63,0,0,1-.43-.23,2,2,0,0,1-.36-.36,3,3,0,0,1-.3-.43,2.82,2.82,0,0,1-.19-.48,2,2,0,0,1-.08-.47,5.09,5.09,0,0,1,.09-.91,6.07,6.07,0,0,1,.84-2,4.35,4.35,0,0,1,.69-.84,3.33,3.33,0,0,1,.86-.6,2.27,2.27,0,0,1,1-.25h.54l.34,0a2.25,2.25,0,0,1,.36.06l.34.1a1.13,1.13,0,0,1,.29.15,2.72,2.72,0,0,1,.49.43,1.76,1.76,0,0,1,.28.41,1.81,1.81,0,0,1,.13.47C6.41,39.56,6.43,39.73,6.43,39.93Z"/><path class="cls-3" d="M12.93,40.48a.45.45,0,0,1,0,.18.91.91,0,0,1-.08.17,4.3,4.3,0,0,1-.37.52c-.16.2-.33.39-.51.59s-.37.39-.56.57a6.63,6.63,0,0,1-.52.46,5.86,5.86,0,0,1-.6.41,3.18,3.18,0,0,1-.55.28,3.68,3.68,0,0,1-.54.16,4.46,4.46,0,0,1-.54.06,1.27,1.27,0,0,1-.52-.1,1.12,1.12,0,0,1-.4-.28,1.57,1.57,0,0,1-.25-.44,1.78,1.78,0,0,1-.1-.53,3.44,3.44,0,0,1,.05-.62,5.46,5.46,0,0,1,.19-.66,5.37,5.37,0,0,1,.29-.65,6.17,6.17,0,0,1,.39-.6l.21-.23a1.55,1.55,0,0,1,.27-.24A1.75,1.75,0,0,1,9,39.35a.75.75,0,0,1,.31-.08.36.36,0,0,1,.2.06.65.65,0,0,1,.18.15,1.77,1.77,0,0,1,.16.22A2,2,0,0,1,10,40a2.25,2.25,0,0,1,.08.24.75.75,0,0,1,0,.2.93.93,0,0,1-.07.32c0,.14-.1.2-.17.21s-.2-.07-.27-.21a1.59,1.59,0,0,1-.08-.18,1,1,0,0,0-.07-.21.69.69,0,0,0-.1-.19A.37.37,0,0,0,9.2,40a.6.6,0,0,0-.22.12,1.49,1.49,0,0,0-.21.22c-.06.09-.13.18-.19.29A2.68,2.68,0,0,0,8.4,41a2.57,2.57,0,0,0-.16.37,4.17,4.17,0,0,0-.13.42,3.15,3.15,0,0,0-.09.42,2.77,2.77,0,0,0,0,.39.78.78,0,0,0,.07.25.94.94,0,0,0,.16.23,1.19,1.19,0,0,0,.23.16.48.48,0,0,0,.26,0A2.45,2.45,0,0,0,9.6,43a5.06,5.06,0,0,0,.91-.54,9.31,9.31,0,0,0,.93-.79c.31-.31.62-.63.92-1a3.49,3.49,0,0,1,.26-.27.38.38,0,0,1,.21-.13s0,0,.06.05A.3.3,0,0,1,12.93,40.48Z"/><path class="cls-3" d="M15,41.47a2.12,2.12,0,0,1-.34.17c-.15.06-.31.12-.48.17a5.07,5.07,0,0,1-.56.13l-.54.09a.91.91,0,0,0,0,.16c0,.08,0,.17,0,.27s0,.21,0,.32,0,.23,0,.34v.46a.31.31,0,0,1,0,.13.53.53,0,0,1-.21.21.25.25,0,0,1-.14,0,.19.19,0,0,1-.15,0,.24.24,0,0,1-.12-.07.27.27,0,0,1-.07-.08l0-.06a1,1,0,0,1,0-.24c0-.1,0-.21,0-.33s0-.24,0-.37,0-.27.05-.39a3.09,3.09,0,0,0,0-.45c0-.16,0-.33,0-.5v-.52c0-.17,0-.33,0-.48s0-.29,0-.41v-.3a.65.65,0,0,1,.08-.35.29.29,0,0,1,.28-.15l.12,0a.57.57,0,0,1,.13.08.52.52,0,0,1,.1.11.14.14,0,0,1,0,.1,3.57,3.57,0,0,1,0,.46l0,.46c0,.15,0,.28-.05.41s0,.23,0,.3a.2.2,0,0,0,.14.18.88.88,0,0,0,.34,0,3.13,3.13,0,0,0,.73-.13,2,2,0,0,0,.32-.12.67.67,0,0,0,.24-.17.7.7,0,0,0,.13-.19.63.63,0,0,0,.08-.23,2.88,2.88,0,0,0,0-.33c0-.12,0-.25,0-.38a1,1,0,0,1,.17-.47.46.46,0,0,1,.34-.18.33.33,0,0,1,.26.1.37.37,0,0,1,.1.25,1.12,1.12,0,0,1,0,.19c0,.09-.05.19-.08.31s-.07.23-.1.35a3.19,3.19,0,0,0-.09.31,1.91,1.91,0,0,0-.06.27c0,.11,0,.24-.05.38l0,.41c0,.13,0,.25,0,.34a1.27,1.27,0,0,0,.13.62.35.35,0,0,0,.33.18,1.51,1.51,0,0,0,.33-.07,2,2,0,0,0,.4-.22,4.84,4.84,0,0,0,.5-.4c.17-.17.38-.37.6-.61s.22-.23.32-.35l.29-.34.24-.29.18-.23.1-.12a.19.19,0,0,1,.23,0,.09.09,0,0,1,.06.1.42.42,0,0,1-.08.25l-.22.35-.14.18-.21.27-.27.34-.29.34-.29.33-.25.26a5.2,5.2,0,0,1-.85.65,1.79,1.79,0,0,1-.85.26.7.7,0,0,1-.62-.28,1.47,1.47,0,0,1-.25-.86v-.51a2.18,2.18,0,0,0,0-.25A1.91,1.91,0,0,0,15,41.47Z"/><path class="cls-3" d="M24.39,40.27a.57.57,0,0,1-.06.25,1.08,1.08,0,0,1-.18.24,1.59,1.59,0,0,1-.24.2,1.65,1.65,0,0,1-.32.18,3,3,0,0,1-.36.13,1.74,1.74,0,0,1-.39,0,1.25,1.25,0,0,1-.4,0,1.54,1.54,0,0,1-.3-.09l-.2-.09a.2.2,0,0,0-.09,0s-.07,0-.08,0,0,0,0,.06,0,.14,0,.23,0,.17,0,.27a1.65,1.65,0,0,1-.1.32,1.41,1.41,0,0,1-.2.35l-.24.28c-.1.09-.2.18-.32.27a3.41,3.41,0,0,1-.37.25l-.39.21a3,3,0,0,1-.39.14,1.23,1.23,0,0,1-.36.06,1,1,0,0,1-.48-.08.79.79,0,0,1-.31-.26,1.15,1.15,0,0,1-.17-.39,3.5,3.5,0,0,1-.06-.48,3.12,3.12,0,0,1,0-.52,3.34,3.34,0,0,1,.14-.52c.06-.17.13-.34.2-.5l.24-.49a2.63,2.63,0,0,1,.7-.92,1.43,1.43,0,0,1,.86-.35,1.31,1.31,0,0,1,.47.09,1,1,0,0,1,.39.29.5.5,0,0,1,.1.17c.05.08.08.17.12.25s.07.16.1.24a.59.59,0,0,0,.06.12,1.67,1.67,0,0,0,.23.23,1.64,1.64,0,0,0,.29.2,1.62,1.62,0,0,0,.33.13,1.23,1.23,0,0,0,.38,0,1.35,1.35,0,0,0,.54-.14,1.86,1.86,0,0,0,.52-.36l.13-.11a.13.13,0,0,1,.11,0s0,0,0,0l0,0,0,0A.08.08,0,0,1,24.39,40.27ZM21,40.62a.77.77,0,0,0,0-.25.46.46,0,0,0-.07-.14l-.11-.1a.59.59,0,0,1-.12-.16,1,1,0,0,0-.12-.17s-.09,0-.17,0a.8.8,0,0,0-.57.32,2.53,2.53,0,0,0-.25.36,3.45,3.45,0,0,0-.22.43c-.05.12-.1.25-.15.4s-.1.29-.14.44S19,42,19,42.14a2.77,2.77,0,0,0,0,.39.54.54,0,0,0,0,.15.45.45,0,0,0,.11.13.53.53,0,0,0,.17.08.56.56,0,0,0,.23,0,.6.6,0,0,0,.23-.06,2.1,2.1,0,0,0,.3-.15l.27-.18a1.28,1.28,0,0,0,.2-.18,2.32,2.32,0,0,0,.31-.41,1.19,1.19,0,0,0,.16-.37,1.42,1.42,0,0,0,.06-.42C21,41,21,40.83,21,40.62Z"/><path class="cls-3" d="M26.74,41a2.91,2.91,0,0,1-.14,1.05,2.45,2.45,0,0,1-.41.77,2,2,0,0,1-.58.49,1.46,1.46,0,0,1-.61.18h-.19a1.08,1.08,0,0,1-.27-.07,1.17,1.17,0,0,1-.3-.17,1,1,0,0,1-.27-.32,2.09,2.09,0,0,1-.22-.52,3.29,3.29,0,0,1-.1-.78,6.62,6.62,0,0,1,.07-1.34A6.93,6.93,0,0,1,24,39.08a5.47,5.47,0,0,1,.42-1,2.69,2.69,0,0,1,.5-.7A2.37,2.37,0,0,1,25.4,37a1.08,1.08,0,0,1,.53-.15,1.23,1.23,0,0,1,.33,0,.92.92,0,0,1,.28.14.82.82,0,0,1,.2.25.89.89,0,0,1,.08.38,1.7,1.7,0,0,1-.28.87,5.25,5.25,0,0,1-.92,1.16h.23l.15,0a.35.35,0,0,1,.14.06,1.41,1.41,0,0,1,.18.14,1.34,1.34,0,0,1,.11.14l.06.1a.15.15,0,0,0,0,.06,1.8,1.8,0,0,0,.55.25,1.6,1.6,0,0,0,.56.07,1.52,1.52,0,0,0,.38,0,1.61,1.61,0,0,0,.33-.12l.28-.16.24-.2.15-.12a.22.22,0,0,1,.12-.06.12.12,0,0,1,.11.11.82.82,0,0,1,0,.21.41.41,0,0,1-.13.24,1.79,1.79,0,0,1-.28.26,2,2,0,0,1-.37.24A3,3,0,0,1,28,41a1.93,1.93,0,0,1-.49.08,2.61,2.61,0,0,1-.39,0A1.62,1.62,0,0,1,26.74,41Zm-.56-3.22a.45.45,0,0,0-.07-.27.25.25,0,0,0-.24-.1.75.75,0,0,0-.4.18,1.91,1.91,0,0,0-.4.52,4.38,4.38,0,0,0-.36.83,8.57,8.57,0,0,0-.29,1.14l.36-.32.31-.29.3-.31.32-.38a2.93,2.93,0,0,0,.18-.26,2.54,2.54,0,0,0,.16-.28c0-.09.07-.18.1-.26A.88.88,0,0,0,26.18,37.79Zm-.06,3.36a.79.79,0,0,0,0-.23.56.56,0,0,0-.08-.2l-.06-.06-.09,0-.11-.08-.14-.12a.62.62,0,0,1-.09-.12l-.06-.14A.73.73,0,0,0,25.4,40s0-.05,0-.05a.34.34,0,0,0-.12.08l-.24.2c-.09.09-.2.18-.32.28l-.34.3a.84.84,0,0,1,0,.1c0,.05,0,.11,0,.18a1.48,1.48,0,0,0,0,.22,1,1,0,0,0,0,.25,2.85,2.85,0,0,0,.08.67,1.36,1.36,0,0,0,.18.4.67.67,0,0,0,.23.19.66.66,0,0,0,.23,0,.8.8,0,0,0,.47-.18,1.51,1.51,0,0,0,.35-.44,2.11,2.11,0,0,0,.22-.56,2.24,2.24,0,0,0,.07-.55Z"/><path class="cls-3" d="M30.91,39.67a.16.16,0,0,0,0-.1l-.08-.1-.11-.08a.27.27,0,0,0-.12,0,.64.64,0,0,0-.24,0,.72.72,0,0,0-.21.12.93.93,0,0,0-.18.16,1.1,1.1,0,0,0-.14.18,4.72,4.72,0,0,0-.31.49,6.65,6.65,0,0,0-.27.61,6.29,6.29,0,0,0-.19.63,2.36,2.36,0,0,0-.07.55.23.23,0,0,0,.12.2.43.43,0,0,0,.29.08.47.47,0,0,0,.24-.1,1.74,1.74,0,0,0,.3-.26,2.17,2.17,0,0,0,.29-.36,2.57,2.57,0,0,0,.26-.41,5.38,5.38,0,0,0,.34-.79A2.38,2.38,0,0,0,30.91,39.67Zm3.89.53a.9.9,0,0,1-.1.18c-.06.09-.14.21-.24.34s-.24.29-.39.46a5.66,5.66,0,0,1-.49.49c-.22.2-.42.36-.59.49a3,3,0,0,1-.46.3,1.43,1.43,0,0,1-.37.16,1.17,1.17,0,0,1-.3.05.78.78,0,0,1-.35-.05.7.7,0,0,1-.27-.19,1,1,0,0,1-.2-.35,2.17,2.17,0,0,1-.14-.52h0c-.11.19-.24.37-.37.56a5.34,5.34,0,0,1-.43.5,2.67,2.67,0,0,1-.47.36,1,1,0,0,1-.47.15.82.82,0,0,1-.26,0,.64.64,0,0,1-.26-.13,1,1,0,0,1-.21-.25,1,1,0,0,1-.09-.37,2.37,2.37,0,0,1,0-.43,3.34,3.34,0,0,1,.11-.51,5.6,5.6,0,0,1,.17-.54c.06-.19.13-.36.2-.53S29,40,29,39.89a2.49,2.49,0,0,1,.22-.32,4,4,0,0,1,.29-.29c.12-.1.25-.19.38-.28a2.28,2.28,0,0,1,.45-.2,1.71,1.71,0,0,1,.51-.1.39.39,0,0,1,.33.14.92.92,0,0,1,.16.41l0,.06.07.08.06.09a.16.16,0,0,1,0,.09.67.67,0,0,1,0,.17,1.12,1.12,0,0,1-.06.23,2.33,2.33,0,0,0-.05.28,1.06,1.06,0,0,0,0,.31c0,.15,0,.31,0,.48a3.16,3.16,0,0,0,.06.47.88.88,0,0,0,.17.35A.35.35,0,0,0,32,42a1.22,1.22,0,0,0,.56-.21,6,6,0,0,0,.76-.57c.18-.16.35-.31.51-.47l.43-.42.32-.3c.09-.07.15-.11.19-.11s.08,0,.09,0,0,0,0,.08,0,0,0,0,0,0,0,.06a.08.08,0,0,1,0,0A.08.08,0,0,0,34.8,40.2Z"/><path class="cls-3" d="M40.45,41.19a.42.42,0,0,1-.08.22,2.47,2.47,0,0,1-.22.29,5.77,5.77,0,0,1-.42.44,4.36,4.36,0,0,1-.46.41,3.15,3.15,0,0,1-.48.3,1.23,1.23,0,0,1-.48.13.7.7,0,0,1-.65-.3,1.79,1.79,0,0,1-.22-.91,1.61,1.61,0,0,1,0-.31c0-.1,0-.2,0-.29s0-.17,0-.25a1.41,1.41,0,0,0,0-.18A1.61,1.61,0,0,1,37,41a4.78,4.78,0,0,1-.79.2l-.23,0-.22,0-.19,0-.09,0a.07.07,0,0,0,0,0l0,.08a.29.29,0,0,0,0,.09.28.28,0,0,0,0,.09c0,.15,0,.31,0,.47s0,.34,0,.52a1.53,1.53,0,0,1-.06.5.25.25,0,0,1-.25.16.47.47,0,0,1-.17,0,.57.57,0,0,1-.13-.08.44.44,0,0,1-.08-.11.5.5,0,0,1,0-.12c0-.09,0-.2,0-.32l0-.4c0-.14,0-.29.05-.44s0-.29,0-.43a5.6,5.6,0,0,0,0-.59c0-.21,0-.42,0-.63s0-.39,0-.56,0-.31,0-.41a.57.57,0,0,1,0-.12.75.75,0,0,1,.05-.16.56.56,0,0,1,.1-.15.25.25,0,0,1,.17-.06.37.37,0,0,1,.29.1.22.22,0,0,1,.09.1.2.2,0,0,1,0,.11.58.58,0,0,1,0,.1s0,.12,0,.21l0,.27c0,.1,0,.2,0,.31s0,.2,0,.3v.26a.22.22,0,0,0,0,.08.24.24,0,0,0,0,.08l0,.06.07,0a5.54,5.54,0,0,0,.82-.08,3.15,3.15,0,0,0,.53-.13,1.54,1.54,0,0,0,.32-.17l.17-.14a.78.78,0,0,0,.16-.22,1.66,1.66,0,0,0,.12-.31c0-.12.07-.24.1-.37s.07-.27.1-.41l0-.13a.54.54,0,0,1,.07-.13.31.31,0,0,1,.11-.08.29.29,0,0,1,.17,0,.35.35,0,0,1,.26.08.33.33,0,0,1,.11.25.64.64,0,0,1,0,.24c0,.09-.07.19-.12.31s-.09.21-.13.32-.07.19-.09.26-.06.31-.09.45,0,.28-.06.42,0,.27,0,.41a2.8,2.8,0,0,0,0,.41,1.9,1.9,0,0,0,0,.37.79.79,0,0,0,.08.22.25.25,0,0,0,.14.11.56.56,0,0,0,.2,0,1.06,1.06,0,0,0,.31-.09,1.86,1.86,0,0,0,.35-.22l.36-.29.33-.33L40,41.3l.13-.14.12-.1a.19.19,0,0,1,.1-.05.11.11,0,0,1,.09.05A.17.17,0,0,1,40.45,41.19Z"/><path class="cls-3" d="M46.82,37a.3.3,0,0,0,0-.1l-.06-.1a.39.39,0,0,0-.1-.08.27.27,0,0,0-.13,0,.53.53,0,0,0-.32.12,1.5,1.5,0,0,0-.31.31,2.92,2.92,0,0,0-.3.45,5.85,5.85,0,0,0-.26.56,5.34,5.34,0,0,0-.21.64c-.06.21-.1.43-.14.65l.12-.08.16-.14.21-.17.2-.19.19-.17.13-.14a4.51,4.51,0,0,0,.66-.92A1.29,1.29,0,0,0,46.82,37Zm0,4.66a2.75,2.75,0,0,1-.32.39,2,2,0,0,1-.87.59,1.21,1.21,0,0,1-.5.07.64.64,0,0,1-.35-.1,1.17,1.17,0,0,1-.3-.29,1.78,1.78,0,0,1-.22-.48,3.09,3.09,0,0,1-.09-.65,4.64,4.64,0,0,1,0-.52,5.54,5.54,0,0,1,0-.56c0-.2,0-.38.07-.56s.06-.36.09-.51.1-.41.16-.62.15-.4.23-.59a5.64,5.64,0,0,1,.28-.55c.11-.17.21-.32.32-.46a2,2,0,0,1,.51-.46,1.46,1.46,0,0,1,.71-.18.6.6,0,0,1,.3,0,.76.76,0,0,1,.25.18.78.78,0,0,1,.16.24.66.66,0,0,1,.06.27,1.12,1.12,0,0,1-.06.42,2.07,2.07,0,0,1-.2.47,3.67,3.67,0,0,1-.33.51,5.08,5.08,0,0,1-.44.5l.13,0a.47.47,0,0,1,.17,0l.19.1a.9.9,0,0,1,.19.16l.09.12a2,2,0,0,1,.09.2,1.47,1.47,0,0,1,.08.25,3,3,0,0,1,0,.33,2.59,2.59,0,0,1-.1.75A3.63,3.63,0,0,1,46.85,41.68Zm-.18-1.59a.87.87,0,0,0-.08-.39.9.9,0,0,0-.17-.26,1,1,0,0,0-.2-.13l-.16,0a.56.56,0,0,0-.18.1l-.25.19-.2.18-.19.16-.16.15a.91.91,0,0,0-.11.16,1.2,1.2,0,0,0-.13.5,5.61,5.61,0,0,0,0,.58,1.29,1.29,0,0,0,0,.35,1.17,1.17,0,0,0,.11.25.86.86,0,0,0,.15.17.27.27,0,0,0,.13,0,1.09,1.09,0,0,0,.33-.07,1.05,1.05,0,0,0,.37-.25,2.6,2.6,0,0,0,.3-.36,2.74,2.74,0,0,0,.21-.42,1.94,1.94,0,0,0,.14-.45A1.91,1.91,0,0,0,46.67,40.09Z"/><path class="cls-3" d="M57.44,41.35a.69.69,0,0,1,0,.22.6.6,0,0,1-.32.27,1.12,1.12,0,0,1-.43.14h-.16a2.55,2.55,0,0,1-.61,0,5.66,5.66,0,0,0-1.5-.11l-.36,0a2.63,2.63,0,0,0-.39.06,2.79,2.79,0,0,0-.68.18,1.94,1.94,0,0,0-.65.39,2,2,0,0,1-.25.28.46.46,0,0,1-.29.08c-.23,0-.34-.08-.35-.28a.84.84,0,0,1,.14-.54,2.29,2.29,0,0,1,.55-.57l.38-.25c.14-.09.31-.19.5-.29l.41-.23a2.2,2.2,0,0,0,.37-.3l.31-.3.32-.31a4.49,4.49,0,0,0,.53-.61,3.81,3.81,0,0,0,.34-.56,1.14,1.14,0,0,0,.13-.55.65.65,0,0,0-.18-.41,1.47,1.47,0,0,0-.43-.35.81.81,0,0,0-.44-.13,1.4,1.4,0,0,0-.68.29,3.29,3.29,0,0,0-.39.27A2.65,2.65,0,0,0,53,38l-.09.1-.09.11-.1.1-.1.06-.13,0h-.18c-.06,0-.12-.06-.19-.18a.76.76,0,0,1-.1-.29.2.2,0,0,1,.06-.16l.19-.16.27-.2.39-.28.33-.24.33-.18a3.49,3.49,0,0,1,.34-.15,2.79,2.79,0,0,1,.76-.1,1.19,1.19,0,0,1,.82.31,3.16,3.16,0,0,1,.67.79,1.7,1.7,0,0,1,.16.34,1.61,1.61,0,0,1-.25.83,4.66,4.66,0,0,1-.3.47c-.11.16-.22.31-.35.47a8.59,8.59,0,0,1-.68.73,5.44,5.44,0,0,1-1.12.84l.28,0,.41,0c.3,0,.75,0,1.36,0h1a.85.85,0,0,0,.29-.08,1.34,1.34,0,0,1,.26-.08.3.3,0,0,1,.18.11A.33.33,0,0,1,57.44,41.35Z"/><path class="cls-3" d="M64,38.62a2.06,2.06,0,0,1-.34,1.15,4.46,4.46,0,0,1-.93,1.09,6.31,6.31,0,0,1-1.22.84,4.16,4.16,0,0,1-1.18.43,8.06,8.06,0,0,1-1,.13,1.32,1.32,0,0,1-1.09-.44,1.78,1.78,0,0,1-.41-1.16A4,4,0,0,1,58,39.48a5.4,5.4,0,0,1,.56-1.22,4.15,4.15,0,0,1,.79-.93,5.54,5.54,0,0,1,1.08-.73,2.52,2.52,0,0,1,1.09-.33,2.11,2.11,0,0,1,.89.18,3.3,3.3,0,0,1,.83.49,2.09,2.09,0,0,1,.28.25A2.22,2.22,0,0,1,64,38.62Zm-.73.17a2.28,2.28,0,0,0-.1-.58,1,1,0,0,0-.22-.46c0-.07-.12-.13-.18-.2l-.2-.2a1.24,1.24,0,0,0-.36-.26.36.36,0,0,1-.3.13s-.08,0-.17-.08a.42.42,0,0,0-.25-.1,2.26,2.26,0,0,0-.51.08,1,1,0,0,0-.41.17,4.36,4.36,0,0,0-.52.44A5.29,5.29,0,0,0,59,39a2.62,2.62,0,0,0-.37,1.41,1.67,1.67,0,0,0,.09.55.57.57,0,0,0,.25.37,1.58,1.58,0,0,0,.84.19A2.92,2.92,0,0,0,61,41.16a7.42,7.42,0,0,0,.86-.56l.3-.25a4.11,4.11,0,0,0,.31-.29A4.34,4.34,0,0,0,63,39.4,1,1,0,0,0,63.22,38.79Z"/><path class="cls-3" d="M70.4,38.41a2,2,0,0,1-.33,1.14,4.29,4.29,0,0,1-.93,1.09,6.63,6.63,0,0,1-1.22.84,4.55,4.55,0,0,1-1.18.44c-.45.07-.77.11-1,.12a1.28,1.28,0,0,1-1.08-.43,1.82,1.82,0,0,1-.41-1.16,3.46,3.46,0,0,1,.17-1.19A5.17,5.17,0,0,1,65,38a4.11,4.11,0,0,1,.79-.93,6,6,0,0,1,1.07-.73,2.58,2.58,0,0,1,1.1-.32,2.05,2.05,0,0,1,.88.17,3.19,3.19,0,0,1,.84.49A3.08,3.08,0,0,1,70,37,2.29,2.29,0,0,1,70.4,38.41Zm-.72.16a2.63,2.63,0,0,0-.1-.57,1,1,0,0,0-.22-.47l-.18-.19L69,37.13a1.46,1.46,0,0,0-.35-.26.38.38,0,0,1-.31.14.54.54,0,0,1-.16-.09.37.37,0,0,0-.26-.09,2.23,2.23,0,0,0-.5.07,1.12,1.12,0,0,0-.41.17,5.57,5.57,0,0,0-.52.44,5.05,5.05,0,0,0-1,1.27,2.53,2.53,0,0,0-.37,1.41,1.92,1.92,0,0,0,.08.55.58.58,0,0,0,.26.37,1.57,1.57,0,0,0,.83.2,2.87,2.87,0,0,0,1.14-.37,7.53,7.53,0,0,0,.87-.56l.3-.24.31-.3a3.85,3.85,0,0,0,.57-.65A1.08,1.08,0,0,0,69.68,38.57Z"/><path class="cls-3" d="M76.52,39.53a1,1,0,0,1-.07.42,1.34,1.34,0,0,1-.22.36,2.48,2.48,0,0,1-.32.33c-.12.1-.25.19-.38.28l-.38.25-.36.2a3.24,3.24,0,0,1-1.51.3,1.86,1.86,0,0,1-.65-.09,2.14,2.14,0,0,1-.61-.29,1.91,1.91,0,0,1-.48-.46,1.38,1.38,0,0,1-.23-.59,6.4,6.4,0,0,1,0-.64,5.05,5.05,0,0,1,.12-.56,3.85,3.85,0,0,1,.22-.52A5.63,5.63,0,0,1,72,38c.11-.17.22-.33.33-.47s.22-.28.33-.4.22-.25.34-.37l.4-.36a2.11,2.11,0,0,1,.23-.19,1.75,1.75,0,0,1,.25-.16,1.15,1.15,0,0,1,.25-.12.67.67,0,0,1,.24,0,.23.23,0,0,1,.14,0,.27.27,0,0,1,.14.07.28.28,0,0,1,.09.1.27.27,0,0,1,0,.15c0,.19,0,.31-.17.33l-.22.05-.2.09-.2.13L73.8,37a6.92,6.92,0,0,0-.65.67,8.2,8.2,0,0,0-.58.74,2.91,2.91,0,0,0-.43.84A2.54,2.54,0,0,0,72,40a1.31,1.31,0,0,0,.06.31,1,1,0,0,0,.14.22,1.2,1.2,0,0,0,.21.17l.27.17s0-.06,0-.09v-.14a2,2,0,0,1,.13-.91c.08-.15.16-.3.24-.43a2,2,0,0,1,.29-.35,1.77,1.77,0,0,1,.35-.26,1.92,1.92,0,0,1,.44-.17l.2,0,.21,0,.23,0,.28,0a1.49,1.49,0,0,1,.5.08,1.58,1.58,0,0,1,.47.23,1.33,1.33,0,0,1,.35.36A.79.79,0,0,1,76.52,39.53Zm-.66,0a.29.29,0,0,0-.08-.17.78.78,0,0,0-.22-.16,1.44,1.44,0,0,0-.35-.11,1.91,1.91,0,0,0-.43,0,1.65,1.65,0,0,0-.71.16,1.25,1.25,0,0,0-.49.38,1.57,1.57,0,0,0-.28.58,3.49,3.49,0,0,0-.1.75l.16,0,.13,0h.32a1.39,1.39,0,0,0,.47-.09,2.76,2.76,0,0,0,.47-.2c.15-.08.29-.17.43-.26a2.36,2.36,0,0,0,.32-.28,2.18,2.18,0,0,0,.27-.32A.38.38,0,0,0,75.86,39.54Z"/><path class="cls-3" d="M87,38.09a.39.39,0,0,1-.07.17,2.08,2.08,0,0,1-.18.26l-.25.33-.29.37c-.25.3-.5.59-.76.87a7.72,7.72,0,0,1-.79.74,4.13,4.13,0,0,1-.8.51,1.74,1.74,0,0,1-.78.2,1.33,1.33,0,0,1-.46,0,.89.89,0,0,1-.36-.19A.92.92,0,0,1,82,41a1.3,1.3,0,0,1-.09-.41A1.28,1.28,0,0,1,82,40.1a2.67,2.67,0,0,1,.25-.43,3.9,3.9,0,0,1,.33-.38c.12-.13.23-.24.33-.36a2.16,2.16,0,0,0,.25-.32.53.53,0,0,0,.1-.33.33.33,0,0,0-.08-.24A.22.22,0,0,0,83,38a.51.51,0,0,0-.2,0,1.34,1.34,0,0,0-.24.12,1.23,1.23,0,0,0-.25.17,2.31,2.31,0,0,0-.24.2l-.11.09-.12.1-.1.09,0,0a.15.15,0,0,1-.09,0l0-.06,0-.08v-.08s0-.07,0-.14l.17-.23a3.38,3.38,0,0,1,.59-.54,2.14,2.14,0,0,1,.4-.2,1.07,1.07,0,0,1,.43-.09.82.82,0,0,1,.4.06.75.75,0,0,1,.27.18.63.63,0,0,1,.16.27.72.72,0,0,1,.06.29.94.94,0,0,1-.09.47,2.58,2.58,0,0,1-.25.42l-.34.39L83,39.8a2.53,2.53,0,0,0-.25.35.61.61,0,0,0-.1.34.4.4,0,0,0,0,.15.34.34,0,0,0,.09.14.54.54,0,0,0,.18.11.93.93,0,0,0,.26,0,1.23,1.23,0,0,0,.32-.07,1.56,1.56,0,0,0,.33-.14l.31-.2.29-.22.25-.23.21-.2.45-.43c.15-.14.3-.29.43-.43l.38-.4.31-.33c.09-.1.17-.17.22-.22s.09-.09.11-.09A.16.16,0,0,1,87,38S87,38,87,38.09Z"/><path class="cls-3" d="M92.06,38a.48.48,0,0,1-.06.25.94.94,0,0,1-.18.24,1,1,0,0,1-.24.2,1.4,1.4,0,0,1-.32.18,3,3,0,0,1-.36.13,1.67,1.67,0,0,1-.39,0,1.28,1.28,0,0,1-.4,0l-.3-.09-.19-.09-.1,0s-.06,0-.07,0a.14.14,0,0,0,0,.06,1.4,1.4,0,0,0,0,.23,1.47,1.47,0,0,1,0,.27,1.65,1.65,0,0,1-.1.32,1.41,1.41,0,0,1-.2.35,1.9,1.9,0,0,1-.24.28c-.1.09-.2.18-.32.27a3.27,3.27,0,0,1-.36.25,3.84,3.84,0,0,1-.4.21,3,3,0,0,1-.39.14,1.12,1.12,0,0,1-.35.06,1,1,0,0,1-.49-.08.88.88,0,0,1-.31-.26,1.39,1.39,0,0,1-.17-.39,3.5,3.5,0,0,1-.06-.48,3.12,3.12,0,0,1,0-.52,5,5,0,0,1,.14-.52c.06-.17.13-.34.2-.5L86.6,38a2.75,2.75,0,0,1,.7-.92,1.43,1.43,0,0,1,.86-.35,1.31,1.31,0,0,1,.47.09,1,1,0,0,1,.4.29.75.75,0,0,1,.1.17,2.72,2.72,0,0,1,.11.25l.1.24a.59.59,0,0,0,.06.12,2.5,2.5,0,0,0,.23.23,2.11,2.11,0,0,0,.29.2,1.71,1.71,0,0,0,.34.13,1.58,1.58,0,0,0,.38,0,1.44,1.44,0,0,0,.54-.14,1.82,1.82,0,0,0,.51-.36l.13-.11a.17.17,0,0,1,.11-.06l0,0,0,0,0,.05A.08.08,0,0,1,92.06,38Zm-3.37.35a1.08,1.08,0,0,0,0-.25.46.46,0,0,0-.07-.14l-.1-.1a.58.58,0,0,1-.13-.16.62.62,0,0,0-.12-.17s-.09-.05-.17-.05a.8.8,0,0,0-.57.32,2.8,2.8,0,0,0-.25.36,2.87,2.87,0,0,0-.22.43c0,.12-.1.25-.15.4a3.19,3.19,0,0,0-.13.44c0,.14-.07.29-.1.43a1.88,1.88,0,0,0,0,.4.26.26,0,0,0,0,.15.33.33,0,0,0,.11.13.6.6,0,0,0,.16.08.85.85,0,0,0,.23,0,.64.64,0,0,0,.24-.06l.29-.15.28-.18.2-.18a4,4,0,0,0,.31-.41,2,2,0,0,0,.16-.37,1.86,1.86,0,0,0,0-.42C88.7,38.72,88.69,38.55,88.69,38.34Z"/><path class="cls-3" d="M93.86,36.41a2.08,2.08,0,0,0-.43-1.06.92.92,0,0,0-.75-.34,1.47,1.47,0,0,0-.27,0,1.59,1.59,0,0,0-.27.12,2.49,2.49,0,0,0-.28.15l-.26.17a.88.88,0,0,1-.18.1l-.12,0a.17.17,0,0,1-.11,0,.26.26,0,0,1-.06-.15.27.27,0,0,1,0-.12.84.84,0,0,1,.06-.14l.1-.14.12-.11a2.94,2.94,0,0,1,.67-.41,1.86,1.86,0,0,1,.69-.16,1.49,1.49,0,0,1,.76.17,1.74,1.74,0,0,1,.59.56,3,3,0,0,1,.39.88,5,5,0,0,1,.17,1.16c0,.14,0,.29,0,.45s0,.31,0,.46,0,.3-.06.43,0,.24-.06.33a4,4,0,0,1-.32.83,3.14,3.14,0,0,1-.48.69,2.54,2.54,0,0,1-.62.47,1.7,1.7,0,0,1-.73.2,1.27,1.27,0,0,1-.52-.1,1.16,1.16,0,0,1-.39-.31,1.67,1.67,0,0,1-.25-.5,2.53,2.53,0,0,1-.1-.65,1.76,1.76,0,0,1,.07-.6,2.67,2.67,0,0,1,.23-.59,3.09,3.09,0,0,1,.4-.57,3.23,3.23,0,0,1,.54-.5,3.88,3.88,0,0,1,.68-.42A4.45,4.45,0,0,1,93.86,36.41Zm-1.35,3.92a.7.7,0,0,0,.37-.12,1.48,1.48,0,0,0,.38-.34,3,3,0,0,0,.34-.54,4.14,4.14,0,0,0,.26-.73c0-.07,0-.17,0-.31s0-.28,0-.43,0-.31,0-.47a1.73,1.73,0,0,0,0-.41,3.78,3.78,0,0,0-.72.33,3.07,3.07,0,0,0-.67.53,2.5,2.5,0,0,0-.49.71,1.87,1.87,0,0,0-.18.89,1.19,1.19,0,0,0,.18.69A.51.51,0,0,0,92.51,40.33Z"/><path class="cls-3" d="M99.71,39.63a13.76,13.76,0,0,1-.34,1.4A4.77,4.77,0,0,1,99,42a1.91,1.91,0,0,1-.31.38,1.62,1.62,0,0,1-.39.28,1.77,1.77,0,0,1-.45.18,2.09,2.09,0,0,1-.5.08,2,2,0,0,1-.89-.16,2.74,2.74,0,0,1-.75-.52.71.71,0,0,1-.22-.34.64.64,0,0,1,0-.3.2.2,0,0,1,.19-.11,0,0,0,0,1,0,0l.07,0,.06,0,.05,0,.28.24a1.77,1.77,0,0,0,.32.21,1.42,1.42,0,0,0,.38.14,1.55,1.55,0,0,0,.45,0,1,1,0,0,0,.28,0,1.69,1.69,0,0,0,.28-.12,2,2,0,0,0,.26-.18,1.15,1.15,0,0,0,.21-.23,1.51,1.51,0,0,0,.24-.46c.08-.19.14-.39.21-.6S99,40.2,99,40s.08-.39.11-.54,0-.09-.07-.09l0,0-.1.09-.15.12-.16.13a1.93,1.93,0,0,1-.32.22l-.42.23-.44.17a1.18,1.18,0,0,1-.37.08,1.05,1.05,0,0,1-.31,0,1.41,1.41,0,0,1-.31-.14,1.27,1.27,0,0,1-.36-.37,1.2,1.2,0,0,1-.13-.5,3.57,3.57,0,0,1,.06-.6c0-.09,0-.2.07-.34l.12-.44c0-.15.08-.3.11-.43s.07-.26.09-.34a1,1,0,0,1,0-.14.78.78,0,0,1,0-.14s0-.09,0-.13l0-.08a.31.31,0,0,1,.09-.11.24.24,0,0,1,.13,0,.34.34,0,0,1,.14,0,.28.28,0,0,1,.11.08.44.44,0,0,1,.08.11.37.37,0,0,1,0,.15,1.76,1.76,0,0,1-.06.4c0,.15-.09.34-.16.56s-.07.22-.11.34l-.09.34c0,.1,0,.2-.06.29a1,1,0,0,0,0,.22.94.94,0,0,0,.13.5.44.44,0,0,0,.38.15,1.89,1.89,0,0,0,.67-.17,3.23,3.23,0,0,0,.66-.4,3.35,3.35,0,0,0,.56-.57,2.35,2.35,0,0,0,.37-.67s0,0,0-.12,0-.16.08-.26l.09-.34c0-.12.06-.23.08-.34a2.08,2.08,0,0,0,.07-.26.48.48,0,0,1,0-.13.36.36,0,0,1,0-.09l.07-.08.09-.06.08,0a.33.33,0,0,1,.15,0,.31.31,0,0,1,.11.09.52.52,0,0,1,.06.13.59.59,0,0,1,0,.14,1,1,0,0,1,0,.29c0,.12-.06.25-.09.41l-.14.5c0,.19-.09.38-.15.58l-.15.61C99.8,39.23,99.76,39.43,99.71,39.63Z"/></svg>