<svg width="26" height="33" viewBox="0 0 26 33" fill="none" xmlns="http://www.w3.org/2000/svg">
<path fill-rule="evenodd" clip-rule="evenodd" d="M0.0890596 8.22665H5.967C6.67948 5.61961 8.8268 4.31609 12.409 4.31609C14.0912 4.31609 15.5558 4.68301 16.8026 5.41684C18.0494 6.13136 18.8905 7.11625 19.3259 8.37148H10.3903V12.6876H19.415C19.0984 14.2904 18.3166 15.5457 17.0698 16.4533C15.8229 17.3609 14.2693 17.8147 12.409 17.8147C10.5288 17.8147 9.01482 17.4285 7.86694 16.6561C6.73885 15.8836 6.08574 14.8022 5.90763 13.4118H0C0.277075 16.0381 1.53381 18.1527 3.77019 19.7555C6.00658 21.3391 8.88618 22.1308 12.409 22.1308C16.3474 22.1308 19.4843 21.1266 21.8196 19.1183C24.155 17.0906 25.3226 14.4063 25.3226 11.0654C25.3226 7.72455 24.155 5.04993 21.8196 3.04154C19.4843 1.01385 16.3474 0 12.409 0C8.92576 0 6.06595 0.772456 3.82957 2.31737C1.61297 3.84297 0.366134 5.81273 0.0890596 8.22665ZM25 29H0V33H25V29Z" fill="white"/>
</svg>
