<svg id="Layer_1" data-name="Layer 1" xmlns="http://www.w3.org/2000/svg" viewBox="0 0 173 75.29"><defs><style>.cls-1,.cls-2{fill:#fff;}.cls-2{fill-rule:evenodd;}</style></defs><path class="cls-1" d="M6,8.23H.09A8.08,8.08,0,0,1,3.83,2.32,14.75,14.75,0,0,1,12.41,0q5.91,0,9.41,3a10,10,0,0,1,3.5,8,10.12,10.12,0,0,1-3.5,8.05q-3.51,3-9.41,3a14.65,14.65,0,0,1-8.64-2.37A8.65,8.65,0,0,1,0,13.41H5.91a4.47,4.47,0,0,0,2,3.25,8,8,0,0,0,4.54,1.15,7.7,7.7,0,0,0,4.66-1.36,5.87,5.87,0,0,0,2.35-3.76h-9V8.37h8.94A5.39,5.39,0,0,0,16.8,5.42a8.42,8.42,0,0,0-4.39-1.1Q7,4.32,6,8.23Z"/><path class="cls-1" d="M34.36.55V8.63L43.45.55h6.94l-9.5,8.17L51.55,21.58H44.93l-7.84-9.65-2.73,2.38v7.27H29V.55Z"/><path class="cls-1" d="M77.13,8.23H71.25q-1.06-3.92-6.44-3.91A7.06,7.06,0,0,0,59.7,6.11a6.54,6.54,0,0,0-1.87,5A6.54,6.54,0,0,0,59.7,16a7.06,7.06,0,0,0,5.11,1.79,7.87,7.87,0,0,0,4.51-1.15,4.44,4.44,0,0,0,2-3.25h5.91a8.68,8.68,0,0,1-3.77,6.35,14.65,14.65,0,0,1-8.64,2.37q-5.91,0-9.41-3a10.13,10.13,0,0,1-3.51-8A10,10,0,0,1,55.4,3q3.49-3,9.41-3a14.61,14.61,0,0,1,8.55,2.32A8.09,8.09,0,0,1,77.13,8.23Z"/><path class="cls-1" d="M80.85.55H102v21h-5.4V4.87H86.26V21.58H80.85Z"/><path class="cls-1" d="M106.83.55H126V4.87H112.23v3.5h12.23v4.32H112.23v4.57H126v4.32H106.83Z"/><path class="cls-1" d="M130,21.58V.55h12.77a8.36,8.36,0,0,1,5.85,1.91,6.75,6.75,0,0,1,2.07,5.25,6.92,6.92,0,0,1-2.1,5.33A8.23,8.23,0,0,1,142.76,15H135.4v6.6ZM135.4,4.87v5.79h4.95a8.77,8.77,0,0,0,3.77-.58,2.33,2.33,0,0,0,1.16-2.29,2.43,2.43,0,0,0-1-2.32,7.41,7.41,0,0,0-3.53-.6Z"/><path class="cls-1" d="M151.76.55H172V4.87h-7.39V21.58h-5.41V4.87h-7.39Z"/><path class="cls-2" d="M173,28.33H0V40.47H173ZM91.7,32.26h1.21v3.56l2.51-3.56H97v5.05H95.76v-3.6l-2.53,3.6H91.7Zm1.15-1.69h.61a.56.56,0,0,0,.21.36.88.88,0,0,0,.55.14c.47,0,.74-.16.79-.5h.59a1.12,1.12,0,0,1-.06.35,2.23,2.23,0,0,1-.21.4,1,1,0,0,1-.43.35,1.45,1.45,0,0,1-.68.14,1.54,1.54,0,0,1-.58-.1,1.22,1.22,0,0,1-.39-.23,1.91,1.91,0,0,1-.24-.32,1.44,1.44,0,0,1-.12-.32A1.26,1.26,0,0,1,92.85,30.57ZM61.53,32.12a3.23,3.23,0,0,0-2.2.73,2.69,2.69,0,0,0,0,3.87,3.22,3.22,0,0,0,2.2.72,3.18,3.18,0,0,0,2.19-.72,2.72,2.72,0,0,0,0-3.87A3.18,3.18,0,0,0,61.53,32.12Zm0,1a1.57,1.57,0,0,1,1.18.43,1.83,1.83,0,0,1,0,2.38,1.57,1.57,0,0,1-1.18.43A1.6,1.6,0,0,1,60.34,36a1.83,1.83,0,0,1,0-2.38A1.6,1.6,0,0,1,61.53,33.16Zm-44-.9h4.94v5.05H21.25v-4H18.83v4H17.57ZM28.2,37.31V32.26h3a1.89,1.89,0,0,1,1.37.46A1.63,1.63,0,0,1,33,34a1.66,1.66,0,0,1-.49,1.28,1.83,1.83,0,0,1-1.36.47H29.47v1.59Zm1.27-4v1.39h1.15a1.9,1.9,0,0,0,.88-.14.55.55,0,0,0,.27-.54.59.59,0,0,0-.24-.56,1.63,1.63,0,0,0-.82-.15Zm10.26-1-2.38,5.05h1.36l.45-1.07h2.21l.46,1.07h1.4l-2.29-5.05Zm1.19,3H39.59l.65-1.56Zm7.3,2.1V32.26h3.25c1.13,0,1.7.42,1.7,1.26a1.15,1.15,0,0,1-.69,1.1,1.18,1.18,0,0,1,.88,1.25,1.37,1.37,0,0,1-.43,1.05,1.73,1.73,0,0,1-1.2.39Zm1.26-2.15v1.11h1.68a1.58,1.58,0,0,0,.68-.1c.13-.06.2-.2.2-.42a.47.47,0,0,0-.21-.45,1.26,1.26,0,0,0-.67-.14Zm0-1.87v1H51a1.58,1.58,0,0,0,.68-.1.44.44,0,0,0,.2-.42.35.35,0,0,0-.2-.37,1.76,1.76,0,0,0-.68-.1Zm20.48-1h3.25c1.13,0,1.7.42,1.7,1.26a1.15,1.15,0,0,1-.69,1.1,1.18,1.18,0,0,1,.87,1.25,1.34,1.34,0,0,1-.43,1.05,1.69,1.69,0,0,1-1.19.39H70Zm1.26,2.9v1.11H72.9a1.58,1.58,0,0,0,.68-.1c.13-.06.2-.2.2-.42a.47.47,0,0,0-.21-.45,1.26,1.26,0,0,0-.67-.14Zm0-1.87v1h1.49a1.58,1.58,0,0,0,.68-.1.46.46,0,0,0,.2-.42.37.37,0,0,0-.2-.37,1.76,1.76,0,0,0-.68-.1Zm12-1.17a3.18,3.18,0,0,0-2.19.73,2.69,2.69,0,0,0,0,3.87,3.69,3.69,0,0,0,4.38,0,2.69,2.69,0,0,0,0-3.87A3.18,3.18,0,0,0,83.26,32.12Zm0,1a1.6,1.6,0,0,1,1.19.43,1.83,1.83,0,0,1,0,2.38,1.69,1.69,0,1,1-1.19-2.81Zm27.79,3.11v-4h-1.26v5.05h4.32v1.07h1.21V36.27h-.59v-4h-1.26v4Zm9.62-4h4.47v1h-3.21v.84h2.86v1h-2.86v1.1h3.21v1h-4.47Zm11.24,1.87V32.26h-1.26v5.05h1.26V35.17h2.42v2.14h1.26V32.26h-1.26v1.87Zm8.77-1.87h4.71v1h-1.72v4h-1.26v-4h-1.73Zm12.79,0h-3v5.05h1.26V35.72h1.72a1.82,1.82,0,0,0,1.35-.47,1.66,1.66,0,0,0,.5-1.28,1.64,1.64,0,0,0-.49-1.25A1.88,1.88,0,0,0,153.47,32.26Zm-1.72,2.42V33.29H153a1.63,1.63,0,0,1,.82.15.59.59,0,0,1,.24.56.55.55,0,0,1-.27.54,1.87,1.87,0,0,1-.88.14Z"/><path class="cls-1" d="M8,65a2.42,2.42,0,0,0-1,.24,3.43,3.43,0,0,0-.87.57,5.78,5.78,0,0,0-.77.79c-.23.29-.46.58-.67.88a9.31,9.31,0,0,0-.55.9,8.81,8.81,0,0,0-.45,1,7,7,0,0,0-.3,1.13,5.48,5.48,0,0,0-.09,1.14,2.39,2.39,0,0,0,.22,1,2.3,2.3,0,0,0,.5.74,2.12,2.12,0,0,0,.69.47,1.94,1.94,0,0,0,.81.15,4.22,4.22,0,0,0,1.17-.2,6,6,0,0,0,1.09-.49,6.91,6.91,0,0,0,1-.71,7.55,7.55,0,0,0,.84-.86,7.63,7.63,0,0,0,.68-1,8.15,8.15,0,0,0,.5-1,5,5,0,0,0,.17-.54,4.14,4.14,0,0,0,.11-.63,5.08,5.08,0,0,0,.07-.67c0-.23,0-.44,0-.64a4.11,4.11,0,0,0,0-.53,2,2,0,0,0-.07-.37,1.59,1.59,0,0,0-.33-.48,2.4,2.4,0,0,0-.61-.5,4,4,0,0,0-.91-.36A3.67,3.67,0,0,0,8,65Zm4.59,2.71a4.6,4.6,0,0,1-.11,1.06A7.68,7.68,0,0,1,12.06,70a8.85,8.85,0,0,1-.63,1.22,7.33,7.33,0,0,1-.86,1.15,13.52,13.52,0,0,1-1.42,1.42,6.41,6.41,0,0,1-1.3.89,5.34,5.34,0,0,1-1.32.47A8.6,8.6,0,0,1,5,75.29a2,2,0,0,1-.81-.13,3.75,3.75,0,0,1-.74-.39,4.46,4.46,0,0,1-.62-.61,5,5,0,0,1-.49-.74,4.22,4.22,0,0,1-.33-.8,3.41,3.41,0,0,1-.13-.81,6.72,6.72,0,0,1,.16-1.54,9.44,9.44,0,0,1,.52-1.7,10.14,10.14,0,0,1,.89-1.65,7.56,7.56,0,0,1,1.18-1.43,5.56,5.56,0,0,1,1.45-1A4,4,0,0,1,7.78,64h.91l.59,0a4,4,0,0,1,.6.1,3.54,3.54,0,0,1,.58.17,2,2,0,0,1,.5.26,4.41,4.41,0,0,1,.83.71,2.68,2.68,0,0,1,.46.71,2.65,2.65,0,0,1,.22.79C12.5,67.09,12.53,67.39,12.54,67.72Zm11,.94a.8.8,0,0,1-.07.31,1.57,1.57,0,0,1-.13.29c-.16.25-.37.55-.63.88s-.55.66-.86,1-.62.66-.95,1a9.29,9.29,0,0,1-.88.77,10.08,10.08,0,0,1-1,.71,6.86,6.86,0,0,1-.94.47,5.23,5.23,0,0,1-.91.27,6.67,6.67,0,0,1-.91.1,1.92,1.92,0,0,1-.88-.16,2,2,0,0,1-.68-.49,2.31,2.31,0,0,1-.43-.73,3.05,3.05,0,0,1-.17-.9,4.76,4.76,0,0,1,.09-1A6.68,6.68,0,0,1,14.49,70a8.41,8.41,0,0,1,.5-1.1,6.66,6.66,0,0,1,.67-1,3,3,0,0,1,.35-.4,4.38,4.38,0,0,1,.45-.41,2.88,2.88,0,0,1,.5-.3,1.29,1.29,0,0,1,.52-.13.6.6,0,0,1,.34.09,1.31,1.31,0,0,1,.31.27,1.77,1.77,0,0,1,.27.37,2.74,2.74,0,0,1,.21.42,2.12,2.12,0,0,1,.14.4,1.63,1.63,0,0,1,.06.34,1.77,1.77,0,0,1-.12.55c-.08.23-.18.34-.3.35s-.33-.11-.45-.35a1.81,1.81,0,0,1-.13-.31,2.17,2.17,0,0,0-.12-.36,1.23,1.23,0,0,0-.17-.32.55.55,0,0,0-.3-.21.93.93,0,0,0-.36.2,2.55,2.55,0,0,0-.36.37c-.11.15-.22.31-.33.49s-.21.37-.31.56a5.27,5.27,0,0,0-.26.62c-.09.23-.16.47-.23.71s-.11.49-.15.73a3.88,3.88,0,0,0,0,.66.9.9,0,0,0,.12.43,1.59,1.59,0,0,0,.27.37,1.48,1.48,0,0,0,.39.28.84.84,0,0,0,.43.09A4.06,4.06,0,0,0,17.91,73a8.41,8.41,0,0,0,1.55-.92A14.3,14.3,0,0,0,21,70.74c.53-.52,1.05-1.07,1.57-1.66l.43-.46a.53.53,0,0,1,.37-.21s.07,0,.1.08A.29.29,0,0,1,23.55,68.66Zm3.52,1.67a2.79,2.79,0,0,1-.58.3c-.25.1-.52.19-.82.28a9.22,9.22,0,0,1-.94.23c-.33.06-.63.11-.93.14a2.6,2.6,0,0,0,0,.28c0,.13,0,.28,0,.46s0,.35,0,.55v.56c0,.18,0,.33,0,.48v.3a.49.49,0,0,1-.06.23.78.78,0,0,1-.36.36.62.62,0,0,1-.23.07.67.67,0,0,1-.26,0,1,1,0,0,1-.2-.12.6.6,0,0,1-.11-.14.24.24,0,0,1,0-.11,1.77,1.77,0,0,1,0-.41c0-.17,0-.35.05-.55s0-.42.08-.64.06-.44.08-.66,0-.47,0-.75,0-.56,0-.86,0-.58,0-.87,0-.57,0-.83,0-.49,0-.69v-.51a1.12,1.12,0,0,1,.12-.59.56.56,0,0,1,.49-.26.41.41,0,0,1,.2.06,1,1,0,0,1,.22.13,1.41,1.41,0,0,1,.17.18.34.34,0,0,1,.07.18,6.71,6.71,0,0,1,0,.77c0,.27,0,.53-.06.79s-.05.48-.07.7a3.19,3.19,0,0,0,0,.51.29.29,0,0,0,.24.29,1.38,1.38,0,0,0,.57.08l.6-.06.63-.16a4.08,4.08,0,0,0,.56-.21,1.23,1.23,0,0,0,.62-.6,1.9,1.9,0,0,0,.14-.4,4.06,4.06,0,0,0,.07-.56c0-.21,0-.42.08-.64a1.61,1.61,0,0,1,.29-.79.72.72,0,0,1,.57-.31.57.57,0,0,1,.45.16.67.67,0,0,1,.16.43,1,1,0,0,1,0,.32c0,.15-.08.33-.14.52s-.11.4-.17.6-.11.38-.15.52a3.72,3.72,0,0,0-.09.46,5.67,5.67,0,0,0-.09.65l-.06.69c0,.23,0,.42,0,.58a2.47,2.47,0,0,0,.21,1.06.61.61,0,0,0,.56.3,1.79,1.79,0,0,0,.57-.13,2.65,2.65,0,0,0,.68-.36,7.39,7.39,0,0,0,.84-.68c.3-.28.64-.63,1-1,.18-.19.36-.39.53-.59s.34-.39.49-.58l.42-.49.3-.39.17-.2a.26.26,0,0,1,.18-.11.48.48,0,0,1,.22,0c.06,0,.09.08.1.18a.9.9,0,0,1-.15.41c-.1.18-.23.37-.37.59l-.23.31-.36.47-.45.56-.51.58c-.16.2-.32.38-.48.56s-.3.32-.43.44a8,8,0,0,1-1.43,1.11,3.05,3.05,0,0,1-1.45.44,1.18,1.18,0,0,1-1-.48A2.53,2.53,0,0,1,27,72v-.43c0-.15,0-.3,0-.44s0-.28,0-.42S27.06,70.43,27.07,70.33ZM43,68.3a.79.79,0,0,1-.11.43,1.76,1.76,0,0,1-.29.4,2.48,2.48,0,0,1-.42.34,2.82,2.82,0,0,1-.54.31A4.84,4.84,0,0,1,41,70a2.84,2.84,0,0,1-.66.1,3.49,3.49,0,0,1-.68,0,3,3,0,0,1-.5-.16,2.27,2.27,0,0,1-.34-.15.37.37,0,0,0-.16-.07.14.14,0,0,0-.13,0,.92.92,0,0,0,0,.09c0,.12,0,.25,0,.4a2.71,2.71,0,0,1-.07.46,2.53,2.53,0,0,1-.51,1.13,2.19,2.19,0,0,1-.41.47,4.92,4.92,0,0,1-.53.47,6.74,6.74,0,0,1-.62.42,5.38,5.38,0,0,1-.67.35,4.44,4.44,0,0,1-.66.25,2.77,2.77,0,0,1-.61.1,1.78,1.78,0,0,1-.81-.14,1.35,1.35,0,0,1-.53-.44,2,2,0,0,1-.29-.66,4.08,4.08,0,0,1-.1-.81,3.78,3.78,0,0,1,.07-.88A7.28,7.28,0,0,1,33,70a8.93,8.93,0,0,1,.35-.85c.13-.28.26-.56.39-.82a4.75,4.75,0,0,1,1.2-1.57,2.42,2.42,0,0,1,1.46-.59,2,2,0,0,1,.79.15,1.64,1.64,0,0,1,.67.49,1,1,0,0,1,.17.29c.07.14.13.28.19.43s.12.27.17.39a1,1,0,0,0,.11.22,3.59,3.59,0,0,0,.39.39,3.38,3.38,0,0,0,.48.33,2.7,2.7,0,0,0,.58.23,2.25,2.25,0,0,0,.64.06,2.33,2.33,0,0,0,.92-.24,3,3,0,0,0,.87-.61c.08-.07.15-.14.22-.19a.29.29,0,0,1,.18-.08.08.08,0,0,1,.08,0,.46.46,0,0,1,.07.07l.06.08A.25.25,0,0,1,43,68.3Zm-5.72.6a1.82,1.82,0,0,0-.06-.43.63.63,0,0,0-.13-.23l-.17-.17a1.05,1.05,0,0,1-.21-.27,1.85,1.85,0,0,0-.21-.3.34.34,0,0,0-.29-.08,1.33,1.33,0,0,0-1,.54,5,5,0,0,0-.43.61,6.19,6.19,0,0,0-.37.73c-.09.2-.17.43-.26.68s-.16.49-.22.74a7,7,0,0,0-.16.74,3.25,3.25,0,0,0,0,.68.54.54,0,0,0,.06.25.57.57,0,0,0,.19.22.82.82,0,0,0,.28.14,1.15,1.15,0,0,0,.39,0,1.28,1.28,0,0,0,.4-.11,4.66,4.66,0,0,0,.5-.25,5.27,5.27,0,0,0,.46-.31,2.17,2.17,0,0,0,.34-.3,4.61,4.61,0,0,0,.53-.7,2.85,2.85,0,0,0,.27-.63,2.63,2.63,0,0,0,.09-.7Q37.28,69.43,37.27,68.9Zm9.71.66a5,5,0,0,1-.24,1.78,4.19,4.19,0,0,1-.7,1.31,3.13,3.13,0,0,1-1,.82,2.32,2.32,0,0,1-1,.3,1.31,1.31,0,0,1-.32,0,1.76,1.76,0,0,1-.45-.1,2.25,2.25,0,0,1-.51-.29,2,2,0,0,1-.47-.55,3.73,3.73,0,0,1-.37-.89,5.72,5.72,0,0,1-.17-1.31,12.21,12.21,0,0,1,.12-2.27,13.4,13.4,0,0,1,.47-2.07A10.6,10.6,0,0,1,43,64.58a5.07,5.07,0,0,1,.86-1.18,3.86,3.86,0,0,1,.81-.63,2,2,0,0,1,.9-.26,2,2,0,0,1,.55.07,1.08,1.08,0,0,1,.48.23,1.23,1.23,0,0,1,.34.43,1.33,1.33,0,0,1,.14.63,2.91,2.91,0,0,1-.47,1.48,9,9,0,0,1-1.56,2h.39a.73.73,0,0,1,.25,0,.59.59,0,0,1,.24.09,2,2,0,0,1,.3.24,1.12,1.12,0,0,1,.18.23.69.69,0,0,1,.11.17.29.29,0,0,0,.08.1,3,3,0,0,0,.93.44,3.49,3.49,0,0,0,.94.11,3.19,3.19,0,0,0,.65-.09,3,3,0,0,0,.55-.2,2.87,2.87,0,0,0,.48-.28,4.12,4.12,0,0,0,.4-.33c.1-.08.18-.15.27-.21a.31.31,0,0,1,.2-.1.17.17,0,0,1,.12.06.19.19,0,0,1,.07.14,2.47,2.47,0,0,1,0,.34.81.81,0,0,1-.23.41,2.51,2.51,0,0,1-.47.44,4,4,0,0,1-.63.41,4.65,4.65,0,0,1-.76.31,3.87,3.87,0,0,1-.84.13,3.58,3.58,0,0,1-.65,0A3.25,3.25,0,0,1,47,69.56ZM46,64.09a1,1,0,0,0-.12-.45.41.41,0,0,0-.41-.17,1.1,1.1,0,0,0-.67.31,3.43,3.43,0,0,0-.69.87,8.49,8.49,0,0,0-.61,1.42A14.21,14.21,0,0,0,43,68l.6-.54c.19-.17.37-.33.54-.5s.33-.35.5-.53l.54-.63a4.83,4.83,0,0,0,.58-.92,3.57,3.57,0,0,0,.17-.44A1.34,1.34,0,0,0,46,64.09Zm-.11,5.71a1.14,1.14,0,0,0-.06-.39.79.79,0,0,0-.15-.34.31.31,0,0,0-.09-.11l-.15-.09-.18-.13-.25-.2a1,1,0,0,1-.14-.2c0-.09-.08-.17-.11-.25l-.08-.2c0-.06-.05-.09-.08-.09a.82.82,0,0,0-.19.14l-.41.35-.54.47c-.19.18-.39.34-.58.51a.89.89,0,0,0,0,.17q0,.12,0,.3c0,.11,0,.24,0,.38v.42A5.26,5.26,0,0,0,43,71.68a2,2,0,0,0,.3.67.88.88,0,0,0,.39.32.94.94,0,0,0,.39.08,1.23,1.23,0,0,0,.79-.32,2.44,2.44,0,0,0,.6-.74,3.35,3.35,0,0,0,.37-.94,3.23,3.23,0,0,0,.12-.94Zm8.13-2.52a.29.29,0,0,0-.06-.16,1.22,1.22,0,0,0-.33-.31.31.31,0,0,0-.2,0,1.16,1.16,0,0,0-.42.08,1.8,1.8,0,0,0-.35.21,1.86,1.86,0,0,0-.31.26,3.15,3.15,0,0,0-.24.3,8.65,8.65,0,0,0-.51.85,10.71,10.71,0,0,0-.46,1,8.13,8.13,0,0,0-.33,1.07,3.25,3.25,0,0,0-.11.93.43.43,0,0,0,.19.34.72.72,0,0,0,.5.13.86.86,0,0,0,.41-.16,3.84,3.84,0,0,0,.5-.44,6.57,6.57,0,0,0,.51-.61,5.73,5.73,0,0,0,.43-.7,8.22,8.22,0,0,0,.58-1.34A4,4,0,0,0,54.05,67.28Zm6.59.91a2.46,2.46,0,0,1-.16.3,7.12,7.12,0,0,1-.42.58,9.23,9.23,0,0,1-.65.77,9.5,9.5,0,0,1-.84.84c-.37.33-.7.61-1,.83a8.44,8.44,0,0,1-.78.51,2.71,2.71,0,0,1-.63.27,2.58,2.58,0,0,1-.52.09,1.62,1.62,0,0,1-.59-.09,1.07,1.07,0,0,1-.45-.32,2.09,2.09,0,0,1-.35-.59,5.33,5.33,0,0,1-.23-.9H54c-.2.31-.41.63-.65,1a7.53,7.53,0,0,1-.72.84,4.48,4.48,0,0,1-.79.62,1.69,1.69,0,0,1-.8.25,1.37,1.37,0,0,1-.89-.29,1.31,1.31,0,0,1-.5-1,3.34,3.34,0,0,1,.06-.74,5.93,5.93,0,0,1,.19-.87c.08-.3.17-.61.28-.92s.23-.6.35-.88.26-.53.39-.75a3.47,3.47,0,0,1,.37-.55,5.83,5.83,0,0,1,.5-.49,4.15,4.15,0,0,1,.64-.46,4,4,0,0,1,.76-.35,2.73,2.73,0,0,1,.86-.16.63.63,0,0,1,.56.22,1.52,1.52,0,0,1,.28.71.31.31,0,0,0,0,.1.69.69,0,0,1,.11.13.58.58,0,0,1,.11.15.3.3,0,0,1,.05.15,1.11,1.11,0,0,1,0,.29c0,.12-.07.25-.11.4s-.06.3-.09.47a3,3,0,0,0,0,.53c0,.25,0,.52,0,.81a3.76,3.76,0,0,0,.11.79,1.66,1.66,0,0,0,.27.6.64.64,0,0,0,.54.22,2.24,2.24,0,0,0,.94-.36,9.06,9.06,0,0,0,1.3-1c.3-.26.59-.53.86-.79l.72-.71.55-.51a.77.77,0,0,1,.33-.2c.08,0,.14,0,.16,0a.24.24,0,0,1,0,.14.26.26,0,0,1,0,.07l0,.09,0,.1A.36.36,0,0,0,60.64,68.19Zm9.59,1.67a.66.66,0,0,1-.14.37,3.71,3.71,0,0,1-.37.49c-.22.25-.46.51-.72.76a8.27,8.27,0,0,1-.77.69,4.26,4.26,0,0,1-.82.51,1.88,1.88,0,0,1-.81.21,1.18,1.18,0,0,1-1.1-.49,3,3,0,0,1-.38-1.55,4.68,4.68,0,0,1,0-.53c0-.17,0-.34,0-.49a2.58,2.58,0,0,1,0-.42c0-.12,0-.22,0-.31a2.91,2.91,0,0,1-.89.47,8.72,8.72,0,0,1-1.34.34l-.4.07L62.2,70l-.31,0-.16,0a.13.13,0,0,0-.08.07l-.06.13,0,.16a.92.92,0,0,0,0,.16,6.8,6.8,0,0,0,0,.8c0,.27,0,.56,0,.87a2,2,0,0,1-.1.84.41.41,0,0,1-.41.28.73.73,0,0,1-.3,0,.57.57,0,0,1-.21-.13.46.46,0,0,1-.13-.18.84.84,0,0,1,0-.2c0-.16,0-.34,0-.55s0-.44.06-.68.05-.49.08-.74.05-.5.08-.74,0-.63,0-1,0-.72,0-1.07,0-.66,0-1,0-.52,0-.69,0-.12,0-.21a1.43,1.43,0,0,1,.09-.27.61.61,0,0,1,.17-.24.45.45,0,0,1,.28-.12.64.64,0,0,1,.28.05.78.78,0,0,1,.22.12.58.58,0,0,1,.14.17.35.35,0,0,1,.06.19s0,.08,0,.17a2.6,2.6,0,0,1,0,.35l-.05.47c0,.17,0,.34,0,.52s0,.34,0,.51a3.36,3.36,0,0,0,0,.45.62.62,0,0,0,0,.13.33.33,0,0,0,0,.13.25.25,0,0,0,.08.1.16.16,0,0,0,.12,0,9.7,9.7,0,0,0,1.4-.13,6.42,6.42,0,0,0,.9-.23,2.31,2.31,0,0,0,.53-.28l.29-.23a1.3,1.3,0,0,0,.28-.39c.07-.16.14-.33.21-.52s.11-.41.16-.63.12-.46.17-.69a1.55,1.55,0,0,1,.07-.23.53.53,0,0,1,.11-.21.49.49,0,0,1,.18-.14.54.54,0,0,1,.29-.07.6.6,0,0,1,.44.14.54.54,0,0,1,.2.41,1.53,1.53,0,0,1-.08.41c-.06.16-.13.34-.21.53s-.15.36-.23.54a2.17,2.17,0,0,0-.14.44c-.06.27-.11.53-.16.77s-.08.48-.11.72,0,.46,0,.69a5.43,5.43,0,0,0,0,.7,4.65,4.65,0,0,0,.06.62,1.13,1.13,0,0,0,.13.38.53.53,0,0,0,.23.19,1.13,1.13,0,0,0,.34,0,1.52,1.52,0,0,0,.54-.15,4.36,4.36,0,0,0,.59-.37c.2-.15.4-.32.6-.5s.39-.37.56-.55l.23-.25.22-.23.2-.18a.4.4,0,0,1,.16-.07.21.21,0,0,1,.17.08A.34.34,0,0,1,70.23,69.86ZM81,62.79a.58.58,0,0,0,0-.18.46.46,0,0,0-.11-.16.34.34,0,0,0-.16-.13.43.43,0,0,0-.23,0,.92.92,0,0,0-.53.2,3.21,3.21,0,0,0-.53.52,5.4,5.4,0,0,0-.5.77,9.53,9.53,0,0,0-.45,1c-.13.34-.25.7-.36,1.07a10.59,10.59,0,0,0-.23,1.12l.19-.15.29-.24.34-.29.35-.31.31-.29c.1-.09.17-.17.23-.23a8.3,8.3,0,0,0,1.11-1.57A2.33,2.33,0,0,0,81,62.79Zm0,7.89a4.64,4.64,0,0,1-.53.68,3.79,3.79,0,0,1-.68.58,3.36,3.36,0,0,1-.8.41,2.1,2.1,0,0,1-.86.13,1.3,1.3,0,0,1-.59-.18,1.69,1.69,0,0,1-.51-.49,2.75,2.75,0,0,1-.36-.81,4.49,4.49,0,0,1-.16-1.11,8.54,8.54,0,0,1,0-.87q0-.48.09-1c0-.33.08-.64.13-1s.1-.6.15-.86a10.12,10.12,0,0,1,.27-1c.12-.35.25-.69.39-1a9.91,9.91,0,0,1,.48-.92,7.23,7.23,0,0,1,.53-.79,3.18,3.18,0,0,1,.87-.77,2.54,2.54,0,0,1,1.19-.32,1.14,1.14,0,0,1,.53.1,1.34,1.34,0,0,1,.68.7,1.14,1.14,0,0,1,.11.46,2.12,2.12,0,0,1-.11.71,4.32,4.32,0,0,1-.33.81A7.83,7.83,0,0,1,81,65a7.37,7.37,0,0,1-.76.85l.24,0a1.82,1.82,0,0,1,.29.08,1.94,1.94,0,0,1,.31.17,1.58,1.58,0,0,1,.32.27l.15.21a1.59,1.59,0,0,1,.16.32,3.88,3.88,0,0,1,.13.44,2.94,2.94,0,0,1,.07.55,4.24,4.24,0,0,1-.17,1.27A5.43,5.43,0,0,1,81.08,70.68ZM80.78,68a1.62,1.62,0,0,0-.14-.67,1.29,1.29,0,0,0-.29-.43.94.94,0,0,0-.34-.22.43.43,0,0,0-.57.09L79,67.1a3.17,3.17,0,0,1-.34.3l-.32.27c-.09.09-.18.17-.26.26a1.05,1.05,0,0,0-.2.27,2,2,0,0,0-.21.86c0,.31,0,.64,0,1a2.1,2.1,0,0,0,.08.59,2.5,2.5,0,0,0,.19.43,1,1,0,0,0,.25.28.4.4,0,0,0,.23.09A2.26,2.26,0,0,0,79,71.3a2,2,0,0,0,.63-.43,3.28,3.28,0,0,0,.49-.61,3.68,3.68,0,0,0,.37-.71,3.27,3.27,0,0,0,.23-.77A3,3,0,0,0,80.78,68Zm18.27,2.14a.91.91,0,0,1-.08.36,1,1,0,0,1-.53.47,1.82,1.82,0,0,1-.74.22h-.27a3.8,3.8,0,0,1-1-.06A10.18,10.18,0,0,0,93.85,71c-.2,0-.4,0-.61,0a5.13,5.13,0,0,0-.65.1,4.63,4.63,0,0,0-1.16.31,3.11,3.11,0,0,0-1.1.65,2.31,2.31,0,0,1-.43.47.7.7,0,0,1-.49.15c-.38,0-.58-.15-.59-.48a1.5,1.5,0,0,1,.23-.91,3.69,3.69,0,0,1,.93-1c.19-.14.4-.28.65-.43l.85-.5.69-.39a3.59,3.59,0,0,0,.64-.51l.52-.5.54-.53a7.09,7.09,0,0,0,.9-1,6.29,6.29,0,0,0,.58-1,1.87,1.87,0,0,0,.22-.93,1.18,1.18,0,0,0-.31-.69,2.36,2.36,0,0,0-.72-.6,1.51,1.51,0,0,0-.76-.22,2.52,2.52,0,0,0-1.15.49c-.25.16-.47.32-.66.46a5.78,5.78,0,0,0-.5.43l-.16.17a.93.93,0,0,0-.16.18,1.17,1.17,0,0,1-.15.16.58.58,0,0,1-.18.11l-.23.07-.3,0c-.09,0-.2-.1-.32-.31a1.29,1.29,0,0,1-.17-.49.33.33,0,0,1,.1-.27,2.72,2.72,0,0,1,.33-.26l.46-.34.65-.49.57-.4c.18-.11.37-.22.55-.31A5.89,5.89,0,0,1,93,62a4.52,4.52,0,0,1,1.29-.19,2.07,2.07,0,0,1,1.39.54,5.15,5.15,0,0,1,1.13,1.33,3.17,3.17,0,0,1,.29.59,2.87,2.87,0,0,1-.44,1.39,8.88,8.88,0,0,1-.5.81c-.18.26-.38.53-.6.79a12.37,12.37,0,0,1-1.16,1.25A9.76,9.76,0,0,1,92.56,70l.47,0a6.66,6.66,0,0,1,.68,0c.52,0,1.29,0,2.31,0h1.62a1.27,1.27,0,0,0,.49-.13,1.45,1.45,0,0,1,.45-.13.43.43,0,0,1,.29.17A.5.5,0,0,1,99.05,70.14Zm11-4.63a3.42,3.42,0,0,1-.56,1.94,7.55,7.55,0,0,1-1.58,1.85,10.88,10.88,0,0,1-2.07,1.42,7.22,7.22,0,0,1-2,.74,12.79,12.79,0,0,1-1.67.21,2.2,2.2,0,0,1-1.83-.73,3.15,3.15,0,0,1-.71-2,6.21,6.21,0,0,1,.3-2,9.24,9.24,0,0,1,1-2.07,6.91,6.91,0,0,1,1.34-1.58,10.09,10.09,0,0,1,1.82-1.24,4.23,4.23,0,0,1,1.86-.55,3.62,3.62,0,0,1,1.5.3,5.57,5.57,0,0,1,1.42.83c.24.2.4.35.47.42A3.82,3.82,0,0,1,110.08,65.51Zm-1.22.27a3.88,3.88,0,0,0-.18-1,1.81,1.81,0,0,0-.37-.8c-.1-.11-.2-.22-.31-.32l-.34-.35a2,2,0,0,0-.6-.44.66.66,0,0,1-.52.23.84.84,0,0,1-.29-.16.77.77,0,0,0-.43-.15A4.24,4.24,0,0,0,105,63a1.86,1.86,0,0,0-.69.29,8.46,8.46,0,0,0-.89.75,9,9,0,0,0-1.7,2.15,4.64,4.64,0,0,0-.63,2.4,3.48,3.48,0,0,0,.15.93,1,1,0,0,0,.43.62,2.65,2.65,0,0,0,1.42.34,5.07,5.07,0,0,0,1.94-.62,12.28,12.28,0,0,0,1.47-1c.16-.12.32-.26.5-.41l.53-.49a7.61,7.61,0,0,0,1-1.12A2,2,0,0,0,108.86,65.78ZM121,65.14a3.57,3.57,0,0,1-.57,2,7.7,7.7,0,0,1-1.58,1.84,10.28,10.28,0,0,1-2.07,1.42,7.28,7.28,0,0,1-2,.74,13.1,13.1,0,0,1-1.68.21,2.2,2.2,0,0,1-1.83-.73,3.08,3.08,0,0,1-.7-2,5.93,5.93,0,0,1,.29-2,8.57,8.57,0,0,1,.95-2.06,6.77,6.77,0,0,1,1.34-1.59A10.09,10.09,0,0,1,115,61.7a4.37,4.37,0,0,1,1.86-.55,3.79,3.79,0,0,1,1.5.3,5.57,5.57,0,0,1,1.42.83l.47.42A3.9,3.9,0,0,1,121,65.14Zm-1.23.28a3.87,3.87,0,0,0-.18-1,1.81,1.81,0,0,0-.37-.8,3.11,3.11,0,0,0-.31-.32c-.1-.12-.22-.23-.34-.35a2,2,0,0,0-.6-.44.66.66,0,0,1-.52.23.83.83,0,0,1-.28-.15.77.77,0,0,0-.43-.16,3.66,3.66,0,0,0-.86.13,1.71,1.71,0,0,0-.69.28,8.46,8.46,0,0,0-.89.75,9,9,0,0,0-1.7,2.15,4.64,4.64,0,0,0-.63,2.4,3.48,3.48,0,0,0,.15.93,1,1,0,0,0,.43.63,2.64,2.64,0,0,0,1.42.33,5.07,5.07,0,0,0,1.94-.62,13.52,13.52,0,0,0,1.47-1l.5-.42c.17-.15.35-.31.53-.49a7.61,7.61,0,0,0,1-1.12A1.87,1.87,0,0,0,119.81,65.42Zm11.6,1.63a1.64,1.64,0,0,1-.12.7,2.58,2.58,0,0,1-.38.63,3.44,3.44,0,0,1-.54.54,7.12,7.12,0,0,1-.64.48l-.65.42-.6.35a5.72,5.72,0,0,1-2.58.51,3.24,3.24,0,0,1-1.09-.16,3.82,3.82,0,0,1-1-.49,3.25,3.25,0,0,1-.8-.77,2.1,2.1,0,0,1-.39-1,6.22,6.22,0,0,1,0-1.08,5.71,5.71,0,0,1,.2-1,6.09,6.09,0,0,1,.37-.88c.16-.3.34-.6.55-.92s.39-.56.57-.8.37-.47.55-.68.39-.43.59-.62.43-.41.67-.62.26-.22.4-.32l.41-.27a2,2,0,0,1,.42-.2,1.35,1.35,0,0,1,.42-.08.67.67,0,0,1,.24,0,.57.57,0,0,1,.22.11.51.51,0,0,1,.17.19.49.49,0,0,1,.08.24c0,.33-.09.53-.28.57a1.93,1.93,0,0,0-.38.09,2.07,2.07,0,0,0-.34.15,3.13,3.13,0,0,0-.34.21l-.36.3a16.39,16.39,0,0,0-2.08,2.4,5.19,5.19,0,0,0-.73,1.42,3.86,3.86,0,0,0-.22,1.33,1.85,1.85,0,0,0,.1.52,1.31,1.31,0,0,0,.24.37,1.79,1.79,0,0,0,.36.3l.45.28a1.37,1.37,0,0,0,0-.16V69a3.23,3.23,0,0,1,.23-1.54,5.58,5.58,0,0,1,.41-.73,2.88,2.88,0,0,1,1.08-1,3.26,3.26,0,0,1,.74-.29l.34-.08.36-.07.4,0a3.28,3.28,0,0,1,.47,0,2.51,2.51,0,0,1,.84.12,2.83,2.83,0,0,1,.8.39,2.52,2.52,0,0,1,.6.62A1.47,1.47,0,0,1,131.41,67.05Zm-1.12,0a.46.46,0,0,0-.14-.29,1.16,1.16,0,0,0-.38-.27,2.08,2.08,0,0,0-.58-.19,2.45,2.45,0,0,0-.74-.07,3.32,3.32,0,0,0-1.21.26,2.3,2.3,0,0,0-.82.65,3,3,0,0,0-.48,1,5.51,5.51,0,0,0-.16,1.27l.26.06.24,0h.24l.29,0a2.56,2.56,0,0,0,.79-.15,4.37,4.37,0,0,0,.8-.34,6.41,6.41,0,0,0,.73-.44,4.72,4.72,0,0,0,.55-.47,3.69,3.69,0,0,0,.46-.54A.74.74,0,0,0,130.29,67.07Zm18.87-2.46s0,.14-.11.27a3.49,3.49,0,0,1-.3.45c-.13.17-.27.36-.44.57l-.49.62c-.42.51-.85,1-1.29,1.48a13.79,13.79,0,0,1-1.33,1.24,7.32,7.32,0,0,1-1.35.87,3.22,3.22,0,0,1-1.34.35,2.39,2.39,0,0,1-.78-.09,1.73,1.73,0,0,1-.6-.32,1.45,1.45,0,0,1-.4-.52,1.91,1.91,0,0,1,0-1.51,4.07,4.07,0,0,1,.42-.73,7.09,7.09,0,0,1,.57-.66c.2-.2.39-.4.56-.59a4.53,4.53,0,0,0,.42-.56.93.93,0,0,0,.17-.55.66.66,0,0,0-.14-.42.41.41,0,0,0-.33-.13,1.21,1.21,0,0,0-.35.07,3.07,3.07,0,0,0-.41.2,2.64,2.64,0,0,0-.42.29,4.35,4.35,0,0,0-.41.34l-.18.15-.2.18-.18.14-.08.06a.19.19,0,0,1-.15,0,.38.38,0,0,1-.09-.09.74.74,0,0,1,0-.14.69.69,0,0,1,0-.13.52.52,0,0,1,.1-.24,2.65,2.65,0,0,1,.28-.39,6.17,6.17,0,0,1,.44-.47,4.35,4.35,0,0,1,.57-.45,3.83,3.83,0,0,1,.67-.34,2.14,2.14,0,0,1,.74-.16,1.72,1.72,0,0,1,.67.1,1.31,1.31,0,0,1,.46.32,1.22,1.22,0,0,1,.28.44,1.52,1.52,0,0,1,.09.51,1.79,1.79,0,0,1-.15.79,4.8,4.8,0,0,1-.43.71q-.27.34-.57.66c-.21.21-.4.41-.57.61a3.73,3.73,0,0,0-.43.6,1,1,0,0,0-.17.57.74.74,0,0,0,.06.27.65.65,0,0,0,.15.23,1,1,0,0,0,.29.18,1.44,1.44,0,0,0,.44.05,1.85,1.85,0,0,0,.56-.11,2.92,2.92,0,0,0,.54-.25,3.61,3.61,0,0,0,.53-.33c.18-.13.34-.25.49-.38l.44-.38.35-.34c.26-.23.51-.48.77-.73l.72-.73.64-.68c.21-.21.38-.4.53-.56l.38-.38q.14-.15.18-.15a.31.31,0,0,1,.19.05A.22.22,0,0,1,149.16,64.61Zm8.61-.18a.89.89,0,0,1-.11.43,1.57,1.57,0,0,1-.29.4,3.89,3.89,0,0,1-.42.35,3.45,3.45,0,0,1-.54.3,3.14,3.14,0,0,1-.61.21,2.93,2.93,0,0,1-.66.1,2.81,2.81,0,0,1-.68,0L154,66l-.33-.15a.44.44,0,0,0-.16-.08c-.07,0-.11,0-.13.06a.16.16,0,0,0,0,.09c0,.11,0,.25,0,.39a3,3,0,0,1-.07.47,2.61,2.61,0,0,1-.16.53,2.73,2.73,0,0,1-.35.6,2.81,2.81,0,0,1-.41.47c-.16.15-.34.31-.53.46a6.74,6.74,0,0,1-.62.42,6.32,6.32,0,0,1-.67.36,5.34,5.34,0,0,1-.66.24,2.87,2.87,0,0,1-.61.1,1.86,1.86,0,0,1-.82-.14,1.32,1.32,0,0,1-.52-.44,1.84,1.84,0,0,1-.29-.65,4.28,4.28,0,0,1-.1-.82,4.39,4.39,0,0,1,.06-.88,6.74,6.74,0,0,1,.24-.88c.1-.3.22-.58.34-.86l.4-.82a4.87,4.87,0,0,1,1.19-1.57,2.39,2.39,0,0,1,1.46-.58,1.89,1.89,0,0,1,.8.15,1.54,1.54,0,0,1,.67.48,1.16,1.16,0,0,1,.17.29c.07.14.13.28.19.43l.17.4a.85.85,0,0,0,.11.21,2.4,2.4,0,0,0,.39.39,2.89,2.89,0,0,0,.48.33,2.37,2.37,0,0,0,1.22.3,2.19,2.19,0,0,0,.92-.25,3,3,0,0,0,.87-.61l.21-.19a.34.34,0,0,1,.19-.08l.08,0,.06.08a.46.46,0,0,1,.07.07A.25.25,0,0,1,157.77,64.43ZM152,65a1.48,1.48,0,0,0,0-.43,1,1,0,0,0-.13-.23l-.17-.17a.9.9,0,0,1-.21-.27,1.69,1.69,0,0,0-.21-.29.37.37,0,0,0-.29-.09,1.31,1.31,0,0,0-1,.55,4.22,4.22,0,0,0-.43.6,7.08,7.08,0,0,0-.37.73c-.09.21-.18.43-.26.68s-.16.49-.22.74a6.69,6.69,0,0,0-.16.75,4,4,0,0,0-.05.67.77.77,0,0,0,.07.26.6.6,0,0,0,.18.21.87.87,0,0,0,.29.14,1,1,0,0,0,.39.05,1.05,1.05,0,0,0,.4-.11,3.78,3.78,0,0,0,.49-.25,4.25,4.25,0,0,0,.47-.31,2.17,2.17,0,0,0,.34-.3,4.61,4.61,0,0,0,.53-.7,2.66,2.66,0,0,0,.27-.63,2.58,2.58,0,0,0,.09-.7C152.06,65.68,152.06,65.38,152,65Zm8.78-3.27a3.57,3.57,0,0,0-.73-1.81,1.57,1.57,0,0,0-1.27-.58,2.07,2.07,0,0,0-.46.09,2.24,2.24,0,0,0-.46.19,4.31,4.31,0,0,0-.47.26c-.16.09-.3.19-.45.29a1.1,1.1,0,0,1-.29.16.78.78,0,0,1-.21,0,.25.25,0,0,1-.19-.08.34.34,0,0,1-.1-.25.54.54,0,0,1,0-.2,1.34,1.34,0,0,1,.12-.24c.05-.08.11-.15.17-.23a1.13,1.13,0,0,1,.19-.19,4.68,4.68,0,0,1,1.15-.69,3.07,3.07,0,0,1,1.16-.28,2.31,2.31,0,0,1,1.28.3,2.77,2.77,0,0,1,1,.93A4.71,4.71,0,0,1,162,61a8.25,8.25,0,0,1,.29,2c0,.24,0,.49,0,.76s0,.53-.05.79-.06.5-.09.72-.08.41-.11.56a6.64,6.64,0,0,1-.54,1.41,5.56,5.56,0,0,1-.82,1.17,3.85,3.85,0,0,1-1,.8,2.73,2.73,0,0,1-1.24.33,1.86,1.86,0,0,1-.87-.16,1.9,1.9,0,0,1-.67-.53,2.55,2.55,0,0,1-.42-.84,4.24,4.24,0,0,1-.18-1.12,3.46,3.46,0,0,1,.12-1,4.17,4.17,0,0,1,.4-1,5.12,5.12,0,0,1,.66-1,5.89,5.89,0,0,1,.93-.86,7.69,7.69,0,0,1,1.15-.71A7.55,7.55,0,0,1,160.82,61.76Zm-2.29,6.64a1.25,1.25,0,0,0,.63-.2,2.55,2.55,0,0,0,.64-.57,5.21,5.21,0,0,0,.58-.92,6.42,6.42,0,0,0,.43-1.24c0-.12.06-.3.09-.52s.07-.47.09-.74,0-.53,0-.79a3.58,3.58,0,0,0-.06-.7,6.23,6.23,0,0,0-1.22.56,5.15,5.15,0,0,0-1.14.89,4.28,4.28,0,0,0-.84,1.22,3.23,3.23,0,0,0-.3,1.5,2.11,2.11,0,0,0,.3,1.17A.85.85,0,0,0,158.53,68.4Zm12.22-1.18c-.19.9-.38,1.69-.58,2.37a6.81,6.81,0,0,1-.66,1.61,2.87,2.87,0,0,1-.51.64,3.09,3.09,0,0,1-.66.48,3.45,3.45,0,0,1-.77.31,3.49,3.49,0,0,1-.84.13,3.34,3.34,0,0,1-1.51-.27,4.38,4.38,0,0,1-1.28-.88,1.38,1.38,0,0,1-.38-.58,1.07,1.07,0,0,1,.08-.51.35.35,0,0,1,.32-.19s0,0,.07,0l.11.07.11.09.07.06c.16.14.31.28.48.41a3.38,3.38,0,0,0,.54.36,3.12,3.12,0,0,0,.65.24,2.66,2.66,0,0,0,.77.07,1.54,1.54,0,0,0,.46-.08,2.55,2.55,0,0,0,.48-.2,4.27,4.27,0,0,0,.44-.3,2.64,2.64,0,0,0,.36-.39,3.14,3.14,0,0,0,.41-.78c.13-.33.24-.67.35-1s.19-.71.27-1.06.15-.66.2-.92q0-.15-.12-.15l-.07.06-.18.16-.24.2-.27.22a3.47,3.47,0,0,1-.55.37,6.1,6.1,0,0,1-.72.39,7.65,7.65,0,0,1-.74.3,2.08,2.08,0,0,1-.63.13,1.91,1.91,0,0,1-.53,0,2.18,2.18,0,0,1-.52-.24,1.93,1.93,0,0,1-.61-.63,2,2,0,0,1-.21-.85,4.88,4.88,0,0,1,.09-1c0-.15.07-.35.12-.58s.13-.49.2-.74.13-.51.19-.74.12-.43.15-.57a2,2,0,0,1,.07-.23,2.41,2.41,0,0,1,.08-.25c0-.07,0-.15.07-.21a1.16,1.16,0,0,1,.06-.15.34.34,0,0,1,.14-.18.37.37,0,0,1,.23-.09.48.48,0,0,1,.23,0,.44.44,0,0,1,.19.12.67.67,0,0,1,.14.19.71.71,0,0,1,.06.25,2.37,2.37,0,0,1-.1.68c-.06.26-.16.58-.27,1l-.18.58c-.06.2-.11.39-.16.57s-.08.35-.1.5a1.4,1.4,0,0,0,0,.38,1.6,1.6,0,0,0,.2.83.73.73,0,0,0,.66.26,3.07,3.07,0,0,0,1.13-.28,5,5,0,0,0,1.12-.68,5.81,5.81,0,0,0,.95-1,3.88,3.88,0,0,0,.63-1.13,1,1,0,0,0,.06-.2l.12-.45q.08-.27.15-.57c.06-.21.11-.4.15-.58s.08-.33.11-.45.06-.2.06-.21a1,1,0,0,1,.07-.15.86.86,0,0,1,.13-.14l.14-.1a.51.51,0,0,1,.14,0,.53.53,0,0,1,.26.05.55.55,0,0,1,.18.16.51.51,0,0,1,.1.21,1,1,0,0,1,0,.25,3.55,3.55,0,0,1,0,.48c0,.21-.09.44-.16.7s-.13.55-.22.86l-.25,1c-.09.34-.18.68-.26,1S170.82,66.88,170.75,67.22Z"/></svg>