<svg id="Layer_1" data-name="Layer 1" xmlns="http://www.w3.org/2000/svg" viewBox="0 0 173 40.47"><defs><style>.cls-1,.cls-2{fill:#fff;}.cls-2{fill-rule:evenodd;}</style></defs><path class="cls-1" d="M6,8.23H.09A8.08,8.08,0,0,1,3.83,2.32,14.75,14.75,0,0,1,12.41,0q5.91,0,9.41,3a10,10,0,0,1,3.5,8,10.12,10.12,0,0,1-3.5,8.05q-3.51,3-9.41,3a14.65,14.65,0,0,1-8.64-2.37A8.65,8.65,0,0,1,0,13.41H5.91a4.47,4.47,0,0,0,2,3.25,8,8,0,0,0,4.54,1.15,7.7,7.7,0,0,0,4.66-1.36,5.87,5.87,0,0,0,2.35-3.76h-9V8.37h8.94A5.39,5.39,0,0,0,16.8,5.42a8.42,8.42,0,0,0-4.39-1.1Q7,4.32,6,8.23Z"/><path class="cls-1" d="M34.36.55V8.63L43.45.55h6.94l-9.5,8.17L51.55,21.58H44.93l-7.84-9.65-2.73,2.38v7.27H29V.55Z"/><path class="cls-1" d="M77.13,8.23H71.25q-1.06-3.92-6.44-3.91A7.06,7.06,0,0,0,59.7,6.11a6.54,6.54,0,0,0-1.87,5A6.54,6.54,0,0,0,59.7,16a7.06,7.06,0,0,0,5.11,1.79,7.87,7.87,0,0,0,4.51-1.15,4.44,4.44,0,0,0,2-3.25h5.91a8.68,8.68,0,0,1-3.77,6.35,14.65,14.65,0,0,1-8.64,2.37q-5.91,0-9.41-3a10.13,10.13,0,0,1-3.51-8A10,10,0,0,1,55.4,3q3.49-3,9.41-3a14.61,14.61,0,0,1,8.55,2.32A8.09,8.09,0,0,1,77.13,8.23Z"/><path class="cls-1" d="M80.85.55H102v21h-5.4V4.87H86.26V21.58H80.85Z"/><path class="cls-1" d="M106.83.55H126V4.87H112.23v3.5h12.23v4.32H112.23v4.57H126v4.32H106.83Z"/><path class="cls-1" d="M130,21.58V.55h12.77a8.36,8.36,0,0,1,5.85,1.91,6.75,6.75,0,0,1,2.07,5.25,6.92,6.92,0,0,1-2.1,5.33A8.23,8.23,0,0,1,142.76,15H135.4v6.6ZM135.4,4.87v5.79h4.95a8.77,8.77,0,0,0,3.77-.58,2.33,2.33,0,0,0,1.16-2.29,2.43,2.43,0,0,0-1-2.32,7.41,7.41,0,0,0-3.53-.6Z"/><path class="cls-1" d="M151.76.55H172V4.87h-7.39V21.58h-5.41V4.87h-7.39Z"/><path class="cls-2" d="M173,28.33H0V40.47H173ZM91.7,32.26h1.21v3.56l2.51-3.56H97v5.05H95.76v-3.6l-2.53,3.6H91.7Zm1.15-1.69h.61a.56.56,0,0,0,.21.36.88.88,0,0,0,.55.14c.47,0,.74-.16.79-.5h.59a1.12,1.12,0,0,1-.06.35,2.23,2.23,0,0,1-.21.4,1,1,0,0,1-.43.35,1.45,1.45,0,0,1-.68.14,1.54,1.54,0,0,1-.58-.1,1.22,1.22,0,0,1-.39-.23,1.91,1.91,0,0,1-.24-.32,1.44,1.44,0,0,1-.12-.32A1.26,1.26,0,0,1,92.85,30.57ZM61.53,32.12a3.23,3.23,0,0,0-2.2.73,2.69,2.69,0,0,0,0,3.87,3.22,3.22,0,0,0,2.2.72,3.18,3.18,0,0,0,2.19-.72,2.72,2.72,0,0,0,0-3.87A3.18,3.18,0,0,0,61.53,32.12Zm0,1a1.57,1.57,0,0,1,1.18.43,1.83,1.83,0,0,1,0,2.38,1.57,1.57,0,0,1-1.18.43A1.6,1.6,0,0,1,60.34,36a1.83,1.83,0,0,1,0-2.38A1.6,1.6,0,0,1,61.53,33.16Zm-44-.9h4.94v5.05H21.25v-4H18.83v4H17.57ZM28.2,37.31V32.26h3a1.89,1.89,0,0,1,1.37.46A1.63,1.63,0,0,1,33,34a1.66,1.66,0,0,1-.49,1.28,1.83,1.83,0,0,1-1.36.47H29.47v1.59Zm1.27-4v1.39h1.15a1.9,1.9,0,0,0,.88-.14.55.55,0,0,0,.27-.54.59.59,0,0,0-.24-.56,1.63,1.63,0,0,0-.82-.15Zm10.26-1-2.38,5.05h1.36l.45-1.07h2.21l.46,1.07h1.4l-2.29-5.05Zm1.19,3H39.59l.65-1.56Zm7.3,2.1V32.26h3.25c1.13,0,1.7.42,1.7,1.26a1.15,1.15,0,0,1-.69,1.1,1.18,1.18,0,0,1,.88,1.25,1.37,1.37,0,0,1-.43,1.05,1.73,1.73,0,0,1-1.2.39Zm1.26-2.15v1.11h1.68a1.58,1.58,0,0,0,.68-.1c.13-.06.2-.2.2-.42a.47.47,0,0,0-.21-.45,1.26,1.26,0,0,0-.67-.14Zm0-1.87v1H51a1.58,1.58,0,0,0,.68-.1.44.44,0,0,0,.2-.42.35.35,0,0,0-.2-.37,1.76,1.76,0,0,0-.68-.1Zm20.48-1h3.25c1.13,0,1.7.42,1.7,1.26a1.15,1.15,0,0,1-.69,1.1,1.18,1.18,0,0,1,.87,1.25,1.34,1.34,0,0,1-.43,1.05,1.69,1.69,0,0,1-1.19.39H70Zm1.26,2.9v1.11H72.9a1.58,1.58,0,0,0,.68-.1c.13-.06.2-.2.2-.42a.47.47,0,0,0-.21-.45,1.26,1.26,0,0,0-.67-.14Zm0-1.87v1h1.49a1.58,1.58,0,0,0,.68-.1.46.46,0,0,0,.2-.42.37.37,0,0,0-.2-.37,1.76,1.76,0,0,0-.68-.1Zm12-1.17a3.18,3.18,0,0,0-2.19.73,2.69,2.69,0,0,0,0,3.87,3.69,3.69,0,0,0,4.38,0,2.69,2.69,0,0,0,0-3.87A3.18,3.18,0,0,0,83.26,32.12Zm0,1a1.6,1.6,0,0,1,1.19.43,1.83,1.83,0,0,1,0,2.38,1.69,1.69,0,1,1-1.19-2.81Zm27.79,3.11v-4h-1.26v5.05h4.32v1.07h1.21V36.27h-.59v-4h-1.26v4Zm9.62-4h4.47v1h-3.21v.84h2.86v1h-2.86v1.1h3.21v1h-4.47Zm11.24,1.87V32.26h-1.26v5.05h1.26V35.17h2.42v2.14h1.26V32.26h-1.26v1.87Zm8.77-1.87h4.71v1h-1.72v4h-1.26v-4h-1.73Zm12.79,0h-3v5.05h1.26V35.72h1.72a1.82,1.82,0,0,0,1.35-.47,1.66,1.66,0,0,0,.5-1.28,1.64,1.64,0,0,0-.49-1.25A1.88,1.88,0,0,0,153.47,32.26Zm-1.72,2.42V33.29H153a1.63,1.63,0,0,1,.82.15.59.59,0,0,1,.24.56.55.55,0,0,1-.27.54,1.87,1.87,0,0,1-.88.14Z"/></svg>