<svg width="50" height="62" viewBox="0 0 50 62" fill="none" xmlns="http://www.w3.org/2000/svg">
<path d="M0 0H49.5287V49.1724H13.1839L0 62V49.1724L0 0Z" fill="#ED1C24"/>
<path d="M18.3697 17.3945H12.9108C13.1682 15.218 14.3261 13.442 16.3847 12.0665C18.4616 10.6735 21.1175 9.97705 24.3524 9.97705C28.01 9.97705 30.9233 10.8912 33.0921 12.7194C35.2609 14.5303 36.3454 16.9418 36.3454 19.9541C36.3454 22.9663 35.2609 25.3866 33.0921 27.2148C30.9233 29.0257 28.01 29.9311 24.3524 29.9311C21.0808 29.9311 18.4065 29.2172 16.3295 27.7894C14.2526 26.3442 13.0854 24.4376 12.8281 22.0696H18.3146C18.48 23.3233 19.0865 24.2983 20.1342 24.9948C21.2002 25.6913 22.6063 26.0395 24.3524 26.0395C26.0801 26.0395 27.523 25.6303 28.6809 24.812C29.8388 23.9936 30.5648 22.8618 30.8589 21.4167H22.4776V17.5251H30.7762C30.3719 16.3933 29.5907 15.5053 28.4328 14.8611C27.2748 14.1994 25.9147 13.8686 24.3524 13.8686C21.0256 13.8686 19.0314 15.0439 18.3697 17.3945Z" fill="white"/>
<rect x="12.6133" y="36.1321" width="23.9425" height="1.85057" fill="white" stroke="white"/>
</svg>
